<svg width="97" height="105" viewBox="0 0 97 105" fill="none" xmlns="http://www.w3.org/2000/svg">
<path d="M16.293 47.1682C16.293 46.1457 16.9715 45.3167 17.8086 45.3167H79.1914C80.0284 45.3167 80.707 46.1457 80.707 47.1682V59.6657C80.707 60.6882 80.0284 61.5171 79.1914 61.5171H17.8086C16.9715 61.5171 16.293 60.6882 16.293 59.6657V47.1682Z" fill="#59999D"/>
<path fill-rule="evenodd" clip-rule="evenodd" d="M16.4749 64.6184C16.7469 64.2299 17.2253 64.1843 17.5434 64.5166C19.1651 66.211 20.5933 67.4435 22.9764 67.5325C24.0995 67.5744 24.9787 66.9491 26.0676 66.1489C26.0837 66.1371 26.0998 66.1253 26.1159 66.1134C27.1468 65.3556 28.3828 64.4469 29.9931 64.5264C31.4587 64.5987 32.4444 65.4266 33.2734 66.1228L33.2826 66.1306C34.1237 66.8369 34.8132 67.4115 35.8483 67.5273C37.1584 67.3155 37.9793 66.6914 38.8641 66.0187C38.8924 65.9972 38.9207 65.9756 38.9491 65.9541C39.8815 65.246 40.917 64.4883 42.5198 64.5258C44.0489 64.5616 45.3552 65.4372 46.3865 66.1802C46.505 66.2655 46.6188 66.3484 46.7289 66.4286C47.1216 66.7146 47.4662 66.9656 47.7997 67.166C48.2253 67.4219 48.5356 67.532 48.7767 67.532C49.0155 67.532 49.3388 67.4166 49.7966 67.1458C50.1264 66.9507 50.4664 66.7133 50.8491 66.4462C50.9973 66.3427 51.1518 66.2348 51.3147 66.1231C52.4254 65.3616 53.8296 64.4883 55.4315 64.5258C56.9596 64.5616 58.0306 65.4308 58.9191 66.1518L58.9717 66.1946C59.895 66.9434 60.6353 67.5194 61.6958 67.5321C62.783 67.5451 63.5465 66.9582 64.5002 66.1929L64.555 66.1489C65.4711 65.4133 66.5764 64.5256 68.1442 64.5256C69.6935 64.5256 70.7312 65.3859 71.6027 66.1084C71.635 66.1351 71.667 66.1617 71.6988 66.188C72.5964 66.9302 73.3715 67.532 74.6001 67.532C75.583 67.532 76.7702 66.8951 77.7873 66.1583C78.2796 65.8017 78.7024 65.4438 79.002 65.175C79.1514 65.0409 79.2692 64.9299 79.3486 64.8535C79.3883 64.8153 79.4183 64.7858 79.4378 64.7664L79.4591 64.7452L79.4639 64.7404M79.4639 64.7404C79.7853 64.4132 80.2632 64.4659 80.5312 64.8585C80.7992 65.2511 80.756 65.8349 80.4345 66.1623L79.9492 65.4514C80.4345 66.1623 80.4345 66.1623 80.4345 66.1623L80.4305 66.1664L80.4223 66.1747C80.4153 66.1817 80.4056 66.1915 80.3931 66.2038C80.3682 66.2285 80.3325 66.2636 80.2868 66.3076C80.1954 66.3956 80.0639 66.5194 79.8992 66.6672C79.5705 66.9622 79.1056 67.3559 78.5604 67.7508C77.5024 68.5173 76.015 69.3835 74.6001 69.3835C72.8774 69.3835 71.7693 68.4821 70.8492 67.7212L70.8409 67.7144C69.9188 66.9518 69.2239 66.3771 68.1442 66.3771C67.054 66.3771 66.2888 66.9728 65.3323 67.7404L65.2953 67.7701C64.373 68.5105 63.2619 69.4024 61.6809 69.3835C60.14 69.365 59.0635 68.4916 58.169 67.7659L58.1334 67.737C57.2074 66.986 56.4657 66.4018 55.4025 66.3769C54.2478 66.3499 53.1618 66.9798 52.0565 67.7377C51.9211 67.8305 51.7831 67.9269 51.6441 68.0239C51.2449 68.3027 50.8373 68.5873 50.4572 68.8121C49.9451 69.1151 49.3679 69.3835 48.7767 69.3835C48.1877 69.3835 47.6267 69.1255 47.1305 68.8273C46.7367 68.5906 46.3223 68.2885 45.9218 67.9966C45.8189 67.9216 45.717 67.8473 45.6166 67.775C44.5826 67.0301 43.5833 66.4025 42.4908 66.3769C41.3588 66.3504 40.6479 66.8441 39.7493 67.5265C39.7107 67.5558 39.6719 67.5854 39.6326 67.6152C38.7451 68.2912 37.6819 69.1009 36.0376 69.3643C35.9364 69.3805 35.8297 69.3841 35.7235 69.3725C34.2781 69.2152 33.2995 68.3924 32.4884 67.7104C32.4668 67.6922 32.4453 67.6742 32.424 67.6563C31.5874 66.9537 30.923 66.4253 29.9319 66.3763C28.8125 66.3211 27.9352 66.9372 26.8489 67.7355C26.8263 67.7521 26.8036 67.7688 26.7807 67.7855C25.7564 68.5389 24.5274 69.4427 22.9301 69.3831C20.0184 69.2743 18.2567 67.6982 16.5582 65.9236C16.2402 65.5913 16.2029 65.0069 16.4749 64.6184" fill="#59999D"/>
<path fill-rule="evenodd" clip-rule="evenodd" d="M16.4749 70.1728C16.7469 69.7843 17.2253 69.7387 17.5434 70.071C19.1651 71.7654 20.5933 72.9979 22.9764 73.0869C24.0995 73.1288 24.9787 72.5035 26.0676 71.7033C26.0837 71.6915 26.0998 71.6797 26.1159 71.6678C27.1468 70.91 28.3828 70.0013 29.9931 70.0808C31.4587 70.1531 32.4444 70.981 33.2734 71.6773L33.2826 71.685C34.1237 72.3913 34.8132 72.9659 35.8483 73.0817C37.1584 72.8699 37.9793 72.2458 38.8641 71.5731C38.8924 71.5516 38.9207 71.5301 38.9491 71.5085C39.8815 70.8004 40.917 70.0427 42.5198 70.0802C44.0489 70.116 45.3552 70.9916 46.3865 71.7346C46.505 71.8199 46.6188 71.9029 46.7289 71.983C47.1216 72.269 47.4662 72.52 47.7997 72.7204C48.2253 72.9763 48.5356 73.0865 48.7767 73.0865C49.0155 73.0865 49.3388 72.9711 49.7966 72.7002C50.1264 72.5051 50.4664 72.2677 50.8491 72.0006C50.9973 71.8971 51.1518 71.7892 51.3147 71.6775C52.4254 70.916 53.8296 70.0427 55.4315 70.0802C56.9596 70.116 58.0306 70.9852 58.9191 71.7063L58.9717 71.749C59.895 72.4978 60.6353 73.0738 61.6958 73.0865C62.783 73.0996 63.5465 72.5127 64.5002 71.7474L64.555 71.7033C65.4711 70.9677 66.5764 70.08 68.1442 70.08C69.6935 70.08 70.7312 70.9403 71.6027 71.6628C71.635 71.6895 71.667 71.7161 71.6988 71.7424C72.5964 72.4847 73.3715 73.0865 74.6001 73.0865C75.583 73.0865 76.7702 72.4495 77.7873 71.7127C78.2796 71.3561 78.7024 70.9982 79.002 70.7294C79.1514 70.5954 79.2692 70.4844 79.3486 70.4079C79.3883 70.3697 79.4183 70.3402 79.4378 70.3209L79.4591 70.2997L79.4639 70.2948M79.4639 70.2948C79.7853 69.9676 80.2632 70.0203 80.5312 70.4129C80.7992 70.8056 80.756 71.3893 80.4345 71.7168L79.9492 71.0058C80.4345 71.7168 80.4345 71.7168 80.4345 71.7168L80.4305 71.7208L80.4223 71.7292C80.4153 71.7361 80.4056 71.7459 80.3931 71.7582C80.3682 71.7829 80.3325 71.818 80.2868 71.862C80.1954 71.95 80.0639 72.0739 79.8992 72.2217C79.5705 72.5166 79.1056 72.9103 78.5604 73.3053C77.5024 74.0717 76.015 74.9379 74.6001 74.9379C72.8774 74.9379 71.7693 74.0365 70.8492 73.2756L70.8409 73.2688C69.9188 72.5062 69.2239 71.9315 68.1442 71.9315C67.054 71.9315 66.2888 72.5273 65.3323 73.2948L65.2953 73.3245C64.373 74.0649 63.2619 74.9569 61.6809 74.9379C60.14 74.9194 59.0635 74.046 58.169 73.3204L58.1334 73.2914C57.2074 72.5404 56.4657 71.9562 55.4025 71.9314C54.2478 71.9043 53.1618 72.5343 52.0565 73.2921C51.9211 73.3849 51.7831 73.4813 51.6441 73.5783C51.2449 73.8571 50.8373 74.1417 50.4572 74.3666C49.9451 74.6695 49.3679 74.9379 48.7767 74.9379C48.1877 74.9379 47.6267 74.68 47.1305 74.3817C46.7367 74.145 46.3223 73.843 45.9218 73.551C45.8189 73.476 45.717 73.4017 45.6166 73.3294C44.5826 72.5845 43.5833 71.9569 42.4908 71.9314C41.3588 71.9049 40.6479 72.3985 39.7493 73.0809C39.7107 73.1102 39.6719 73.1398 39.6326 73.1697C38.7451 73.8456 37.6819 74.6553 36.0376 74.9187C35.9364 74.9349 35.8297 74.9385 35.7235 74.9269C34.2781 74.7696 33.2995 73.9468 32.4884 73.2648C32.4668 73.2467 32.4453 73.2286 32.424 73.2107C31.5874 72.5081 30.923 71.9797 29.9319 71.9308C28.8125 71.8755 27.9352 72.4916 26.8489 73.2899C26.8263 73.3065 26.8036 73.3232 26.7807 73.34C25.7564 74.0933 24.5274 74.9972 22.9301 74.9375C20.0184 74.8287 18.2567 73.2526 16.5582 71.478C16.2402 71.1457 16.2029 70.5614 16.4749 70.1728" fill="#59999D"/>
<path d="M42.8164 46.7053C42.8164 48.7504 36.8789 50.4083 29.5547 50.4083C22.2304 50.4083 16.293 48.7504 16.293 46.7053C16.293 44.6603 22.2304 43.0024 29.5547 43.0024C36.8789 43.0024 42.8164 44.6603 42.8164 46.7053Z" fill="#59999D"/>
<path d="M80.707 46.7053C80.707 48.7504 74.7695 50.4083 67.4453 50.4083C60.121 50.4083 54.1836 48.7504 54.1836 46.7053C54.1836 44.6603 60.121 43.0024 67.4453 43.0024C74.7695 43.0024 80.707 44.6603 80.707 46.7053Z" fill="#59999D"/>
<path fill-rule="evenodd" clip-rule="evenodd" d="M43.8757 24.1048C42.4438 24.4365 41.3707 25.9084 41.2227 27.7435L41.1975 28.0565L40.9392 28.1788C39.0372 29.0795 38.4396 31.2172 39.5121 33.2834C39.6301 33.5108 39.7214 33.7016 39.7148 33.7074C37.535 35.6403 37.2732 38.5941 39.1214 40.4016C40.0414 41.3014 40.1108 41.3126 44.6471 41.2947L48.2511 41.2806L48.5409 41.1806C51.4713 40.1698 51.8431 35.8277 49.1809 33.7063C49.1744 33.7011 49.2656 33.5108 49.3836 33.2834C50.4208 31.2855 49.8729 29.1261 48.1037 28.238L47.7354 28.0532L47.712 27.71C47.5522 25.3677 45.747 23.6713 43.8757 24.1048ZM49.416 24.0808C48.97 24.1801 48.3713 24.48 48.0612 24.7596L47.9512 24.8588L48.1619 25.2687C48.3955 25.7232 48.59 26.2898 48.6894 26.8053C48.7547 27.1439 48.755 27.1444 48.9376 27.2575C50.6354 28.309 51.4179 30.7524 50.75 32.9166C50.6978 33.0857 50.6461 33.2588 50.6352 33.3012C50.6214 33.3548 50.7 33.4882 50.8944 33.7408C52.4924 35.817 52.4631 38.9088 50.8257 40.986L50.5703 41.3101L52.1273 41.2935C53.8678 41.2751 53.9511 41.2624 54.529 40.9277C57.0466 39.4697 57.1105 35.6668 54.6504 33.7063C54.6438 33.7011 54.735 33.5108 54.853 33.2834C55.9245 31.2193 55.3261 29.078 53.4266 28.179L53.1689 28.0571L53.1453 27.712C52.9899 25.4336 51.1943 23.6853 49.416 24.0808ZM43.3793 45.3771H41.2061V46.7053H54.2457V45.3771H52.0724V42.6322H49.8992V45.3771H45.5526V42.6322H43.3793V45.3771Z" fill="#59999D"/>
</svg>
