<svg width="94" height="94" viewBox="0 0 94 94" fill="none" xmlns="http://www.w3.org/2000/svg">
<path d="M8.07813 44.3963C8.07813 43.2459 8.89817 42.3134 9.90974 42.3134H84.0902C85.1018 42.3134 85.9218 43.2459 85.9218 44.3963V58.4563C85.9218 59.6066 85.1018 60.5392 84.0902 60.5392H9.90974C8.89817 60.5392 8.07813 59.6066 8.07813 58.4563V44.3963Z" fill="#54B0F2"/>
<path fill-rule="evenodd" clip-rule="evenodd" d="M8.29798 64.0282C8.62673 63.5911 9.20483 63.5398 9.58921 63.9137C11.549 65.8199 13.275 67.2065 16.155 67.3066C17.5122 67.3538 18.5747 66.6503 19.8907 65.7501C19.9101 65.7368 19.9295 65.7235 19.9491 65.7101C21.1949 64.8575 22.6886 63.8353 24.6346 63.9247C26.4057 64.0061 27.597 64.9374 28.5988 65.7207L28.6099 65.7294C29.6264 66.5241 30.4596 67.1705 31.7105 67.3008C33.2938 67.0625 34.2858 66.3604 35.3551 65.6036C35.3893 65.5794 35.4235 65.5551 35.4579 65.5309C36.5847 64.7343 37.836 63.8818 39.773 63.924C41.6209 63.9643 43.1995 64.9494 44.4459 65.7853C44.589 65.8813 44.7266 65.9746 44.8596 66.0647C45.3342 66.3865 45.7506 66.6689 46.1536 66.8944C46.6681 67.1822 47.043 67.3061 47.3344 67.3061C47.623 67.3061 48.0136 67.1763 48.567 66.8716C48.9655 66.6521 49.3764 66.3851 49.8388 66.0845C50.0179 65.9681 50.2047 65.8467 50.4016 65.721C51.7438 64.8643 53.4407 63.8819 55.3766 63.924C57.2233 63.9643 58.5177 64.9422 59.5913 65.7534L59.655 65.8014C60.7708 66.6439 61.6654 67.2919 62.947 67.3062C64.2609 67.3209 65.1836 66.6606 66.3361 65.7996L66.4024 65.7501C67.5094 64.9225 68.8452 63.9238 70.7398 63.9238C72.6121 63.9238 73.8662 64.8917 74.9194 65.7045C74.9584 65.7346 74.9971 65.7644 75.0355 65.794C76.1202 66.6291 77.057 67.3061 78.5417 67.3061C79.7295 67.3061 81.1643 66.5896 82.3934 65.7607C82.9884 65.3594 83.4993 64.9568 83.8614 64.6544C84.042 64.5036 84.1843 64.3787 84.2802 64.2927C84.3282 64.2497 84.3645 64.2165 84.388 64.1948L84.4137 64.1709L84.4195 64.1655M84.4195 64.1655C84.808 63.7973 85.3855 63.8566 85.7094 64.2983C86.0333 64.7401 85.981 65.3968 85.5926 65.7652L85.0061 64.9653C85.5926 65.7652 85.5926 65.7652 85.5926 65.7652L85.5878 65.7697L85.5777 65.7791C85.5694 65.787 85.5576 65.7979 85.5425 65.8118C85.5125 65.8396 85.4693 65.8791 85.414 65.9286C85.3036 66.0276 85.1447 66.1669 84.9456 66.3332C84.5484 66.665 83.9866 67.1079 83.3277 67.5523C82.0491 68.4145 80.2517 69.3891 78.5417 69.3891C76.4598 69.3891 75.1208 68.375 74.0087 67.5189L73.9988 67.5112C72.8844 66.6533 72.0446 66.0068 70.7398 66.0068C69.4223 66.0068 68.4976 66.677 67.3417 67.5405L67.297 67.5739C66.1824 68.4069 64.8396 69.4104 62.929 69.389C61.0669 69.3682 59.7659 68.3856 58.6849 67.5693L58.6419 67.5367C57.5228 66.6918 56.6264 66.0346 55.3416 66.0066C53.9462 65.9762 52.6338 66.6849 51.298 67.5375C51.1343 67.6419 50.9676 67.7503 50.7996 67.8595C50.3172 68.1731 49.8246 68.4933 49.3653 68.7463C48.7464 69.0871 48.0489 69.3891 47.3344 69.3891C46.6226 69.3891 45.9447 69.0989 45.345 68.7633C44.8691 68.497 44.3683 68.1572 43.8842 67.8287C43.76 67.7444 43.6368 67.6608 43.5154 67.5794C42.2659 66.7414 41.0582 66.0354 39.7379 66.0066C38.3699 65.9768 37.5108 66.5322 36.4249 67.2999C36.3783 67.3328 36.3313 67.3661 36.2839 67.3997C35.2113 68.1602 33.9265 69.0711 31.9393 69.3674C31.817 69.3857 31.6881 69.3897 31.5598 69.3767C29.813 69.1997 28.6304 68.274 27.6501 67.5068C27.624 67.4864 27.5981 67.4661 27.5723 67.4459C26.5613 66.6554 25.7584 66.061 24.5606 66.0059C23.2078 65.9438 22.1477 66.6369 20.8348 67.535C20.8075 67.5537 20.7801 67.5725 20.7525 67.5913C19.5145 68.4389 18.0294 69.4557 16.0991 69.3886C12.5802 69.2662 10.4512 67.493 8.39869 65.4966C8.01432 65.1228 7.96923 64.4653 8.29798 64.0282" fill="#54B0F2"/>
<path fill-rule="evenodd" clip-rule="evenodd" d="M8.29798 70.2771C8.62673 69.84 9.20483 69.7887 9.58921 70.1625C11.549 72.0688 13.275 73.4553 16.155 73.5555C17.5122 73.6027 18.5747 72.8992 19.8907 71.9989C19.9101 71.9857 19.9295 71.9724 19.9491 71.959C21.1949 71.1064 22.6886 70.0841 24.6346 70.1736C26.4057 70.2549 27.597 71.1863 28.5988 71.9696L28.6099 71.9783C29.6264 72.773 30.4596 73.4193 31.7105 73.5496C33.2938 73.3114 34.2858 72.6093 35.3551 71.8524C35.3893 71.8283 35.4235 71.804 35.4579 71.7797C36.5847 70.9832 37.836 70.1307 39.773 70.1729C41.6209 70.2132 43.1995 71.1983 44.4459 72.0341C44.589 72.1301 44.7266 72.2234 44.8596 72.3136C45.3342 72.6354 45.7506 72.9177 46.1536 73.1432C46.6681 73.4311 47.043 73.555 47.3344 73.555C47.623 73.555 48.0136 73.4252 48.567 73.1204C48.9655 72.9009 49.3764 72.6339 49.8388 72.3333C50.0179 72.217 50.2047 72.0955 50.4016 71.9699C51.7438 71.1132 53.4407 70.1307 55.3766 70.1729C57.2233 70.2131 58.5177 71.191 59.5913 72.0022L59.655 72.0503C60.7708 72.8928 61.6654 73.5407 62.947 73.555C64.2609 73.5697 65.1836 72.9095 66.3361 72.0485L66.4024 71.9989C67.5094 71.1713 68.8452 70.1727 70.7398 70.1727C72.6121 70.1727 73.8662 71.1405 74.9194 71.9533C74.9584 71.9834 74.9971 72.0133 75.0355 72.0429C76.1202 72.8779 77.057 73.555 78.5417 73.555C79.7295 73.555 81.1643 72.8384 82.3934 72.0095C82.9884 71.6083 83.4993 71.2057 83.8614 70.9033C84.042 70.7524 84.1843 70.6276 84.2802 70.5416C84.3282 70.4986 84.3645 70.4654 84.388 70.4436L84.4137 70.4198L84.4195 70.4143M84.4195 70.4143C84.808 70.0462 85.3855 70.1055 85.7094 70.5472C86.0333 70.9889 85.981 71.6457 85.5926 72.014L85.0061 71.2142C85.5926 72.014 85.5926 72.014 85.5926 72.014L85.5878 72.0186L85.5777 72.028C85.5694 72.0358 85.5576 72.0468 85.5425 72.0607C85.5125 72.0885 85.4693 72.128 85.414 72.1775C85.3036 72.2764 85.1447 72.4158 84.9456 72.5821C84.5484 72.9139 83.9866 73.3568 83.3277 73.8011C82.0491 74.6634 80.2517 75.638 78.5417 75.638C76.4598 75.638 75.1208 74.6239 74.0087 73.7678L73.9988 73.7601C72.8844 72.9022 72.0446 72.2557 70.7398 72.2557C69.4223 72.2557 68.4976 72.9259 67.3417 73.7894L67.297 73.8228C66.1824 74.6557 64.8396 75.6592 62.929 75.6379C61.0669 75.6171 59.7659 74.6345 58.6849 73.8181L58.6419 73.7856C57.5228 72.9407 56.6264 72.2835 55.3416 72.2555C53.9462 72.2251 52.6338 72.9338 51.298 73.7863C51.1343 73.8908 50.9676 73.9992 50.7996 74.1084C50.3172 74.422 49.8246 74.7422 49.3653 74.9951C48.7464 75.3359 48.0489 75.638 47.3344 75.638C46.6226 75.638 45.9447 75.3477 45.345 75.0122C44.8691 74.7459 44.3683 74.4061 43.8842 74.0776C43.76 73.9933 43.6368 73.9097 43.5154 73.8283C42.2659 72.9903 41.0582 72.2842 39.7379 72.2555C38.3699 72.2257 37.5108 72.781 36.4249 73.5487C36.3783 73.5817 36.3313 73.615 36.2839 73.6486C35.2113 74.4091 33.9265 75.32 31.9393 75.6163C31.817 75.6345 31.6881 75.6386 31.5598 75.6256C29.813 75.4485 28.6304 74.5229 27.6501 73.7556C27.624 73.7352 27.5981 73.7149 27.5723 73.6947C26.5613 72.9043 25.7584 72.3098 24.5606 72.2548C23.2078 72.1927 22.1477 72.8857 20.8348 73.7838C20.8075 73.8025 20.7801 73.8213 20.7525 73.8402C19.5145 74.6878 18.0294 75.7046 16.0991 75.6375C12.5802 75.5151 10.4512 73.7419 8.39869 71.7455C8.01432 71.3716 7.96923 70.7142 8.29798 70.2771" fill="#54B0F2"/>
<path d="M40.1314 43.8756C40.1314 46.1763 32.956 48.0415 24.1048 48.0415C15.2535 48.0415 8.07813 46.1763 8.07813 43.8756C8.07813 41.5748 15.2535 39.7097 24.1048 39.7097C32.956 39.7097 40.1314 41.5748 40.1314 43.8756Z" fill="#54B0F2"/>
<path d="M85.9218 43.8756C85.9218 46.1763 78.7465 48.0415 69.8952 48.0415C61.0439 48.0415 53.8685 46.1763 53.8685 43.8756C53.8685 41.5748 61.0439 39.7097 69.8952 39.7097C78.7465 39.7097 85.9218 41.5748 85.9218 43.8756Z" fill="#54B0F2"/>
<path fill-rule="evenodd" clip-rule="evenodd" d="M41.4116 18.4494C39.6811 18.8226 38.3843 20.4785 38.2055 22.543L38.175 22.8951L37.8628 23.0328C35.5643 24.046 34.8421 26.4511 36.1382 28.7756C36.2808 29.0314 36.3911 29.246 36.3832 29.2525C33.749 31.4272 33.4325 34.7503 35.666 36.7837C36.7779 37.796 36.8618 37.8086 42.3438 37.7885L46.6992 37.7726L47.0494 37.6601C50.5908 36.523 51.0401 31.638 47.8229 29.2513C47.815 29.2455 47.9253 29.0314 48.0679 28.7756C49.3212 26.5278 48.6592 24.0985 46.5211 23.0993L46.076 22.8914L46.0477 22.5054C45.8546 19.8702 43.6731 17.9617 41.4116 18.4494ZM48.107 18.4224C47.5679 18.5341 46.8444 18.8715 46.4697 19.1861L46.3368 19.2976L46.5914 19.7589C46.8737 20.2701 47.1088 20.9075 47.2289 21.4875C47.3078 21.8684 47.3082 21.869 47.5288 21.9962C49.5806 23.1792 50.5262 25.9281 49.7191 28.3629C49.656 28.5532 49.5936 28.7479 49.5804 28.7955C49.5637 28.8559 49.6587 29.0059 49.8936 29.2901C51.8248 31.6259 51.7894 35.1043 49.8106 37.4412L49.502 37.8058L51.3836 37.7871C53.4869 37.7664 53.5876 37.7521 54.286 37.3755C57.3285 35.7353 57.4058 31.4569 54.4326 29.2513C54.4247 29.2455 54.535 29.0314 54.6776 28.7756C55.9725 26.4533 55.2493 24.0444 52.9537 23.033L52.6423 22.8958L52.6138 22.5076C52.426 19.9444 50.256 17.9775 48.107 18.4224ZM40.8117 42.3813H38.1854V43.8756H53.9437V42.3813H51.3173V39.2932H48.6909V42.3813H43.4381V39.2932H40.8117V42.3813Z" fill="#54B0F2"/>
</svg>
