<svg width="94" height="94" viewBox="0 0 94 94" fill="none" xmlns="http://www.w3.org/2000/svg">
<path fill-rule="evenodd" clip-rule="evenodd" d="M15.7891 29.7422C15.7891 28.5254 16.7754 27.5391 17.9922 27.5391H76.0078C77.2246 27.5391 78.2109 28.5254 78.2109 29.7422V64.2578C78.2109 65.4746 77.2246 66.4609 76.0078 66.4609H17.9922C16.7754 66.4609 15.7891 65.4746 15.7891 64.2578V29.7422ZM47 37.8203C47 37.4147 47.3288 37.0859 47.7344 37.0859H71.6016C72.0071 37.0859 72.3359 37.4147 72.3359 37.8203V38.5547C72.3359 38.9603 72.0071 39.2891 71.6016 39.2891H47.7344C47.3288 39.2891 47 38.9603 47 38.5547V37.8203ZM47.7344 42.9609C47.3288 42.9609 47 43.2897 47 43.6953V44.4297C47 44.8353 47.3288 45.1641 47.7344 45.1641H71.6016C72.0071 45.1641 72.3359 44.8353 72.3359 44.4297V43.6953C72.3359 43.2897 72.0071 42.9609 71.6016 42.9609H47.7344ZM47 49.5703C47 49.1647 47.3288 48.8359 47.7344 48.8359H71.6016C72.0071 48.8359 72.3359 49.1647 72.3359 49.5703V50.3047C72.3359 50.7103 72.0071 51.0391 71.6016 51.0391H47.7344C47.3288 51.0391 47 50.7103 47 50.3047V49.5703ZM47.7344 54.7109C47.3288 54.7109 47 55.0397 47 55.4453V56.1797C47 56.5853 47.3288 56.9141 47.7344 56.9141H56.1797C56.5853 56.9141 56.9141 56.5853 56.9141 56.1797V55.4453C56.9141 55.0397 56.5853 54.7109 56.1797 54.7109H47.7344ZM28.4685 34.9222C28.9775 34.9848 29.4924 34.8678 29.9244 34.5915L30.2205 34.4021C30.751 34.0628 31.1921 33.7834 31.2007 33.7813C31.2094 33.779 31.6552 34.0569 32.1915 34.3987L32.5004 34.5955C32.9311 34.87 33.4439 34.9864 33.951 34.9246L34.2672 34.886C34.9377 34.8043 35.2168 34.7375 35.4165 34.8342C35.6148 34.9301 35.7348 35.1873 36.0819 35.7511L36.3617 36.2055C36.5587 36.5256 36.8612 36.7668 37.2171 36.8876C37.5199 36.9904 38.0141 37.1594 38.3153 37.2632C38.6492 37.3783 38.8859 37.6769 38.9219 38.0283L39.0156 38.9437C39.0685 39.4614 39.303 39.9436 39.6775 40.305L39.7287 40.3543C40.3546 40.9582 40.5667 41.8739 40.2699 42.6915L40.2386 42.7777C40.0627 43.2624 40.0624 43.7936 40.2378 44.2786L40.2715 44.372C40.5619 45.1748 40.3622 46.0731 39.7592 46.6775L39.6496 46.7872C39.292 47.1456 39.0688 47.6162 39.0174 48.1198L38.9834 48.4522C38.9161 49.1125 38.9238 49.3922 38.7902 49.5593C38.6559 49.7274 38.3787 49.7815 37.7383 49.9943L37.4353 50.095C36.9467 50.2574 36.5305 50.5859 36.2588 51.0232L36.0817 51.3083C35.7531 51.8373 35.4732 52.2809 35.4598 52.2941C35.4463 52.3073 34.9921 52.2628 34.4504 52.1952C33.731 52.1053 33.4386 52.0507 33.1744 52.114C32.9286 52.1729 32.7073 52.3338 32.1891 52.6635C31.6753 52.9903 31.2355 53.2577 31.2118 53.2577C31.1881 53.2577 30.7505 52.9903 30.2394 52.6635C29.5931 52.2502 29.2641 52.0695 29.1591 52.0701C29.076 52.0705 28.5533 52.1267 27.9974 52.1949C27.4415 52.2632 26.975 52.3076 26.9607 52.2936C26.9465 52.2797 26.6666 51.8365 26.3387 51.3087L26.1603 51.0214C25.8903 50.5869 25.4775 50.2598 24.9927 50.0963L24.6801 49.9909C24.037 49.7741 23.7608 49.7205 23.6279 49.5531C23.4964 49.3874 23.5056 49.1101 23.4384 48.4522L23.4045 48.1198C23.3531 47.6162 23.1298 47.1456 22.7722 46.7872L22.6627 46.6775C22.0596 46.0731 21.86 45.1748 22.1504 44.372L22.1841 44.2786C22.3595 43.7936 22.3592 43.2624 22.1832 42.7777L22.152 42.6915C21.8552 41.8739 22.0673 40.9582 22.6932 40.3543L22.7443 40.305C23.1188 39.9436 23.3533 39.4614 23.4063 38.9437L23.4152 38.8567C23.5027 38.001 24.0803 37.2745 24.8942 36.9963L25.0058 36.9581C25.4898 36.7927 25.9011 36.464 26.1692 36.0284L26.3395 35.7518C26.6872 35.187 26.8088 34.929 27.0086 34.8325C27.2096 34.7354 27.4897 34.8019 28.1586 34.8841L28.4685 34.9222ZM36.0753 48.1152C39.7072 44.2901 37.5975 37.8551 32.416 36.9543C27.3758 36.0781 23.2488 40.8368 24.8661 45.6598C26.4624 50.4201 32.6084 51.7664 36.0753 48.1152ZM26.5979 45.7911C25.0461 42.6533 27.0809 38.8787 30.563 38.4354C34.6725 37.9121 37.692 42.2758 35.7544 45.9376C33.8083 49.6155 28.4468 49.5297 26.5979 45.7911ZM23.0392 55.186C23.5391 53.6281 24.0096 52.1595 24.0847 51.9225C24.2335 51.4523 24.2559 51.4397 24.6211 51.6209C24.7143 51.6672 26.0356 53.6831 26.1419 53.941C26.1504 53.9617 26.7765 53.9052 27.5331 53.8155L28.131 53.7447C28.6342 53.6851 29.1425 53.8007 29.5704 54.0721L29.71 54.1607C30.1507 54.4402 30.5422 54.697 30.5801 54.7314C30.6342 54.7804 29.0259 60.0568 28.9076 60.2187C28.9031 60.2248 28.2305 59.6959 27.4129 59.0435L26.5854 58.3831C26.161 58.0445 25.6266 57.8745 25.0846 57.9057L24.0554 57.965C23.0264 58.0242 22.1723 58.0606 22.1573 58.0457C22.1424 58.0307 22.5392 56.7439 23.0392 55.186ZM37.8265 51.5946C37.851 51.5837 37.8769 51.5758 37.9079 51.5659C38.1889 51.4762 38.1985 51.4841 38.3378 51.924C38.4116 52.1567 38.8811 53.6234 39.3813 55.1834C39.8814 56.7434 40.2799 58.0304 40.2667 58.0435C40.2535 58.0566 39.3997 58.02 38.3692 57.9623L37.3355 57.9043C36.7946 57.874 36.2615 58.044 35.838 58.3819L35.009 59.0435C34.1914 59.6959 33.5188 60.2248 33.5143 60.2187C33.4987 60.1974 31.7811 54.8193 31.7811 54.7919C31.7811 54.7133 33.505 53.6711 33.6339 53.6718C33.7123 53.6722 34.3353 53.7412 35.018 53.825C35.7009 53.9089 36.263 53.9725 36.2672 53.9664C36.2715 53.9603 36.5617 53.4902 36.912 52.9218C37.5975 51.8098 37.691 51.6552 37.8265 51.5946ZM31.353 40.8676L33.9404 43.4423C34.0974 43.5987 34.0974 43.852 33.941 44.0084C33.8656 44.0841 33.7633 44.126 33.6565 44.126C33.5059 44.126 33.3838 44.2481 33.3838 44.3986V45.9632C33.3838 46.0739 33.294 46.1634 33.1828 46.1634H32.2132C31.8262 46.1634 31.5126 45.8497 31.5126 45.4628V45.1139C31.5126 44.9197 31.3551 44.7622 31.1608 44.7622C30.9665 44.7622 30.809 44.9197 30.809 45.1139V45.4628C30.809 45.8497 30.4954 46.1634 30.1084 46.1634H29.2393C29.1281 46.1634 29.0383 46.0739 29.0383 45.9632V44.3986C29.0383 44.2481 28.9162 44.126 28.7656 44.126C28.5439 44.126 28.3636 43.9465 28.3636 43.7257C28.3636 43.6193 28.4063 43.5174 28.4817 43.4423L31.0691 40.8676C31.0877 40.849 31.1098 40.8342 31.1342 40.8242C31.1586 40.8141 31.1847 40.8089 31.2111 40.8089C31.2374 40.8089 31.2635 40.8141 31.2879 40.8242C31.3123 40.8342 31.3344 40.849 31.353 40.8676Z" fill="#34566F"/>
</svg>
