<svg width="94" height="94" viewBox="0 0 94 94" fill="none" xmlns="http://www.w3.org/2000/svg">
<path fill-rule="evenodd" clip-rule="evenodd" d="M10.6484 27.158C10.6484 25.7461 11.8031 24.6016 13.2274 24.6016H81.1398C82.5641 24.6016 83.7187 25.7461 83.7187 27.158V67.2092C83.7187 68.6211 82.5641 69.7656 81.1398 69.7656H13.2274C11.8031 69.7656 10.6484 68.6211 10.6484 67.2092V27.158ZM47.1836 36.5317C47.1836 36.0611 47.5685 35.6795 48.0432 35.6795H75.9819C76.4567 35.6795 76.8415 36.0611 76.8415 36.5317V37.3838C76.8415 37.8545 76.4567 38.236 75.9819 38.236H48.0432C47.5685 38.236 47.1836 37.8545 47.1836 37.3838V36.5317ZM48.0432 42.4968C47.5685 42.4968 47.1836 42.8783 47.1836 43.3489V44.2011C47.1836 44.6717 47.5685 45.0532 48.0432 45.0532H75.9819C76.4567 45.0532 76.8415 44.6717 76.8415 44.2011V43.3489C76.8415 42.8783 76.4567 42.4968 75.9819 42.4968H48.0432ZM47.1836 50.1661C47.1836 49.6955 47.5685 49.314 48.0432 49.314H75.9819C76.4567 49.314 76.8415 49.6955 76.8415 50.1661V51.0183C76.8415 51.4889 76.4567 51.8704 75.9819 51.8704H48.0432C47.5685 51.8704 47.1836 51.4889 47.1836 51.0183V50.1661ZM48.0432 56.1312C47.5685 56.1312 47.1836 56.5127 47.1836 56.9833V57.8355C47.1836 58.3061 47.5685 58.6876 48.0432 58.6876H57.9292C58.404 58.6876 58.7889 58.3061 58.7889 57.8355V56.9833C58.7889 56.5127 58.404 56.1312 57.9292 56.1312H48.0432ZM25.4908 33.1688C26.0866 33.2414 26.6894 33.1057 27.1951 32.785L27.5417 32.5653C28.1627 32.1716 28.679 31.8474 28.6891 31.8449C28.6993 31.8423 29.2212 32.1648 29.849 32.5613L30.2105 32.7897C30.7147 33.1083 31.315 33.2432 31.9086 33.1715L32.2787 33.1268C33.0636 33.032 33.3903 32.9544 33.6241 33.0666C33.8562 33.178 33.9967 33.4764 34.4031 34.1306L34.7305 34.6579C34.9611 35.0293 35.3153 35.3092 35.7319 35.4494C36.0863 35.5687 36.6648 35.7648 37.0174 35.8853C37.4083 36.0188 37.6854 36.3653 37.7275 36.773L37.8371 37.8353C37.8991 38.436 38.1736 38.9956 38.612 39.4148L38.6719 39.4721C39.4046 40.1729 39.6528 41.2354 39.3054 42.1841L39.2688 42.2841C39.0628 42.8466 39.0625 43.463 39.2678 44.0258L39.3073 44.1341C39.6472 45.0657 39.4135 46.1081 38.7076 46.8093L38.5794 46.9367C38.1607 47.3525 37.8994 47.8986 37.8392 48.483L37.7995 48.8687C37.7206 49.6349 37.7297 49.9595 37.5734 50.1534C37.4161 50.3484 37.0916 50.4112 36.342 50.6581L35.9873 50.775C35.4154 50.9635 34.9281 51.3445 34.61 51.8521L34.4028 52.1828C34.0181 52.7967 33.6905 53.3115 33.6747 53.3268C33.6589 53.3421 33.1273 53.2904 32.4932 53.2119C31.651 53.1076 31.3087 53.0443 30.9995 53.1177C30.7118 53.1861 30.4527 53.3729 29.8461 53.7553C29.2447 54.1346 28.7299 54.4449 28.7021 54.4449C28.6743 54.4449 28.1621 54.1346 27.5638 53.7553C26.8072 53.2758 26.4222 53.0661 26.2993 53.0668C26.202 53.0672 25.5901 53.1325 24.9393 53.2117C24.2887 53.2909 23.7426 53.3424 23.7258 53.3262C23.7092 53.31 23.3815 52.7958 22.9978 52.1833L22.7889 51.85C22.4728 51.3457 21.9896 50.9662 21.4221 50.7765L21.0562 50.6542C20.3034 50.4026 19.98 50.3403 19.8245 50.1462C19.6705 49.9538 19.6813 49.6321 19.6027 48.8687L19.563 48.483C19.5028 47.8986 19.2415 47.3525 18.8229 46.9367L18.6946 46.8093C17.9887 46.1081 17.755 45.0657 18.0949 44.1341L18.1344 44.0258C18.3397 43.463 18.3394 42.8466 18.1334 42.2841L18.0968 42.1841C17.7494 41.2354 17.9976 40.1729 18.7303 39.4721L18.7902 39.4148C19.2286 38.9956 19.5031 38.436 19.5651 37.8353L19.5755 37.7343C19.678 36.7414 20.3541 35.8984 21.3068 35.5755L21.4374 35.5312C22.004 35.3392 22.4854 34.9578 22.7993 34.4525L22.9987 34.1315C23.4057 33.4761 23.548 33.1766 23.7819 33.0647C24.0172 32.9521 24.345 33.0292 25.1281 33.1246L25.4908 33.1688ZM34.3952 48.4777C38.6468 44.0391 36.1771 36.5721 30.1118 35.5268C24.2118 34.5101 19.3807 40.032 21.2739 45.6284C23.1425 51.1522 30.3369 52.7144 34.3952 48.4777ZM23.3011 45.7808C21.4847 42.1398 23.8665 37.7598 27.9427 37.2454C32.7531 36.6382 36.2877 41.7017 34.0196 45.9508C31.7415 50.2186 25.4654 50.119 23.3011 45.7808ZM19.1353 56.6824C19.7206 54.8747 20.2713 53.1706 20.3592 52.8955C20.5334 52.3499 20.5596 52.3353 20.9871 52.5456C21.0962 52.5993 22.6429 54.9385 22.7673 55.2378C22.7773 55.2618 23.5102 55.1962 24.3959 55.0922L25.0958 55.01C25.6848 54.9408 26.2799 55.075 26.7807 55.3899L26.9442 55.4927C27.46 55.817 27.9183 56.115 27.9626 56.155C28.0259 56.2118 26.1433 62.3344 26.0048 62.5223C25.9996 62.5293 25.2122 61.9157 24.2552 61.1586L23.2864 60.3923C22.7897 59.9994 22.1641 59.8021 21.5296 59.8383L20.3249 59.9071C19.1204 59.9759 18.1206 60.018 18.103 60.0007C18.0855 59.9834 18.5501 58.4902 19.1353 56.6824ZM36.4452 52.5151C36.4739 52.5024 36.5042 52.4932 36.5405 52.4817C36.8694 52.3777 36.8806 52.3869 37.0438 52.8973C37.1301 53.1673 37.6797 54.8693 38.2652 56.6794C38.8506 58.4896 39.3171 59.9831 39.3017 59.9982C39.2863 60.0135 38.2867 59.971 37.0805 59.904L35.8704 59.8367C35.2373 59.8015 34.6132 59.9988 34.1175 60.3909L33.147 61.1586C32.19 61.9157 31.4026 62.5293 31.3974 62.5223C31.3792 62.4975 29.3685 56.257 29.3685 56.2251C29.3685 56.134 31.3865 54.9246 31.5374 54.9254C31.6292 54.9259 32.3584 55.0059 33.1577 55.1032C33.957 55.2005 34.615 55.2743 34.62 55.2672C34.6249 55.2601 34.9646 54.7147 35.3747 54.0551C36.1772 52.7647 36.2866 52.5854 36.4452 52.5151ZM28.8674 40.0677L31.8962 43.0553C32.08 43.2368 32.08 43.5307 31.8969 43.7122C31.8087 43.8 31.6888 43.8487 31.5638 43.8487C31.3876 43.8487 31.2447 43.9903 31.2447 44.165V45.9805C31.2447 46.109 31.1395 46.2128 31.0094 46.2128H29.8743C29.4214 46.2128 29.0542 45.8488 29.0542 45.3998V44.995C29.0542 44.7696 28.8698 44.5869 28.6424 44.5869C28.415 44.5869 28.2306 44.7696 28.2306 44.995V45.3998C28.2306 45.8488 27.8635 46.2128 27.4105 46.2128H26.3931C26.2629 46.2128 26.1578 46.109 26.1578 45.9805V44.165C26.1578 43.9903 26.0149 43.8487 25.8387 43.8487C25.5791 43.8487 25.3681 43.6403 25.3681 43.3841C25.3681 43.2607 25.4181 43.1424 25.5063 43.0553L28.5351 40.0677C28.5569 40.0461 28.5828 40.029 28.6113 40.0173C28.6398 40.0056 28.6704 39.9996 28.7012 39.9996C28.7321 39.9996 28.7627 40.0056 28.7912 40.0173C28.8197 40.029 28.8456 40.0461 28.8674 40.0677Z" fill="#67A850"/>
</svg>
