<svg width="94" height="94" viewBox="0 0 94 94" fill="none" xmlns="http://www.w3.org/2000/svg">
<path d="M17.5548 8.13309C17.4228 8.08407 17.2808 8.06749 17.1409 8.08476C17.0011 8.10203 16.8675 8.15264 16.7517 8.23226C16.6358 8.31189 16.5411 8.41815 16.4757 8.54198C16.4103 8.6658 16.3761 8.8035 16.376 8.94329V22.9394C15.5697 22.2991 14.5715 21.943 13.5386 21.9272C12.5058 21.9114 11.497 22.2369 10.6711 22.8523C9.84529 23.4677 9.24931 24.3382 8.97706 25.3265C8.70482 26.3148 8.77178 27.3649 9.1674 28.3113C9.56302 29.2577 10.2648 30.0467 11.1623 30.554C12.0597 31.0613 13.1018 31.2581 14.1244 31.1134C15.147 30.9687 16.092 30.4907 16.8106 29.7547C17.5292 29.0187 17.9806 28.0665 18.0935 27.0481C18.112 26.9776 18.1214 26.9051 18.1215 26.8323V15.9627L26.2517 18.9865C26.3837 19.0355 26.5257 19.0521 26.6655 19.0349C26.8054 19.0176 26.939 18.967 27.0548 18.8873C27.1706 18.8077 27.2653 18.7015 27.3307 18.5776C27.3961 18.4538 27.4304 18.3161 27.4304 18.1763V14.4058C27.4306 13.642 27.1958 12.8964 26.7572 12.2686C26.3187 11.6408 25.6974 11.1608 24.9764 10.8926L17.5548 8.13309Z" fill="#B164FF"/>
<path d="M75.679 62.8953C75.5471 62.8462 75.4051 62.8297 75.2652 62.8469C75.1253 62.8642 74.9918 62.9148 74.8759 62.9944C74.7601 63.0741 74.6654 63.1803 74.6 63.3042C74.5346 63.428 74.5004 63.5657 74.5003 63.7055V77.7016C73.6939 77.0612 72.6957 76.7052 71.6629 76.6894C70.63 76.6736 69.6212 76.9991 68.7954 77.6145C67.9695 78.2299 67.3736 79.1003 67.1013 80.0886C66.8291 81.077 66.896 82.127 67.2917 83.0734C67.6873 84.0199 68.3891 84.8089 69.2865 85.3162C70.184 85.8235 71.2261 86.0203 72.2487 85.8756C73.2713 85.7309 74.2163 85.2529 74.9349 84.5169C75.6535 83.7809 76.1048 82.8287 76.2178 81.8103C76.2362 81.7398 76.2456 81.6673 76.2457 81.5945V70.7249L84.3759 73.7487C84.5079 73.7977 84.6499 73.8143 84.7898 73.797C84.9297 73.7798 85.0632 73.7291 85.1791 73.6495C85.2949 73.5699 85.3896 73.4636 85.455 73.3398C85.5204 73.216 85.5546 73.0783 85.5547 72.9385V69.168C85.5549 68.4042 85.32 67.6586 84.8815 67.0308C84.4429 66.403 83.8216 65.9229 83.1006 65.6548L75.679 62.8953Z" fill="#B164FF"/>
<path fill-rule="evenodd" clip-rule="evenodd" d="M26.1959 25.9611C24.9671 26.2497 24.1029 26.9622 23.4564 28.2204L22.8895 29.3237L22.895 46.745C22.9003 63.1127 22.9285 64.2268 23.3634 65.1683C23.9306 66.3964 24.5778 66.9907 25.8333 67.4358C27.1564 67.9051 66.2467 67.963 67.8073 67.498C69.1467 67.0989 70.3873 65.8968 70.7315 64.6642C71.121 63.2683 71.121 30.2406 70.7315 28.8447C70.3689 27.546 69.0774 26.3537 67.645 25.9949C66.3157 25.6622 27.6041 25.6307 26.1959 25.9611ZM33.0937 37.6102H27.2987L27.2264 34.9967C27.1866 33.5591 27.2128 32.2306 27.2846 32.0447C27.3859 31.7821 28.0523 31.7223 30.2544 31.7771L33.0937 31.848V37.6102ZM55.5 32.1163C56.0905 32.7038 56.0905 42.7671 55.5 43.3546C55.156 43.6963 54.0149 43.7481 46.8216 43.7481C38.5486 43.7481 38.539 43.7476 38.1472 43.1912C37.8247 42.7335 37.7549 41.7639 37.7549 37.7355C37.7549 33.707 37.8247 32.7374 38.1472 32.2797C38.539 31.7233 38.5486 31.7228 46.8216 31.7228C54.0149 31.7228 55.156 31.7746 55.5 32.1163ZM66.352 37.6102L63.7432 37.6818C62.036 37.7287 61.013 37.6533 60.7827 37.4634C60.3171 37.0791 60.2821 32.4721 60.7412 32.0156C60.9576 31.8004 61.8553 31.7283 63.7016 31.7776L66.352 31.848V37.6102ZM33.0937 49.6355H27.2987L27.2264 47.022C27.1866 45.5845 27.2128 44.256 27.2846 44.0701C27.3859 43.8075 28.0523 43.7476 30.2544 43.8025L33.0937 43.8734V49.6355ZM66.352 49.6355L63.7432 49.7072C62.036 49.754 61.013 49.6786 60.7827 49.4887C60.3171 49.1044 60.2821 44.4975 60.7412 44.041C60.9576 43.8258 61.8553 43.7536 63.7016 43.803L66.352 43.8734V49.6355ZM54.6199 49.7563C55.0943 49.8916 55.5738 50.1451 55.6851 50.32C55.7968 50.4946 55.8897 52.9688 55.892 55.8183C55.8953 60.1973 55.8346 61.0596 55.5 61.3926C55.156 61.7343 54.0149 61.7862 46.8216 61.7862C38.5486 61.7862 38.539 61.7857 38.1472 61.2292C37.8247 60.7715 37.7549 59.802 37.7549 55.7735C37.7549 50.5059 37.8832 49.9161 39.0799 49.6869C40.2639 49.4597 53.7924 49.5203 54.6199 49.7563ZM33.0937 61.6609H27.2987L27.2264 59.0474C27.1866 57.6099 27.2128 56.2813 27.2846 56.0954C27.3859 55.8329 28.0523 55.773 30.2544 55.8279L33.0937 55.8988V61.6609ZM66.577 56.1698C66.6611 56.3878 66.7299 57.6141 66.7299 58.8948C66.7299 60.5824 66.6329 61.3037 66.3782 61.5141C66.1479 61.704 65.1249 61.7794 63.4177 61.7326L60.8089 61.6609L60.7366 59.0474C60.6968 57.6099 60.7218 56.2851 60.7918 56.1037C60.8863 55.8584 61.6268 55.7735 63.6717 55.7735C65.9491 55.7735 66.4505 55.8419 66.577 56.1698Z" fill="#B164FF"/>
</svg>
