<svg width="94" height="94" viewBox="0 0 94 94" fill="none" xmlns="http://www.w3.org/2000/svg">
<path d="M23.2254 15.8337C23.1186 15.7939 23.0038 15.7804 22.8907 15.7944C22.7776 15.8085 22.6696 15.8495 22.576 15.9141C22.4823 15.9787 22.4057 16.0649 22.3528 16.1654C22.2999 16.2659 22.2723 16.3776 22.2722 16.491V27.8463C21.6202 27.3268 20.813 27.0379 19.9778 27.0251C19.1427 27.0123 18.327 27.2764 17.6592 27.7757C16.9914 28.275 16.5095 28.9812 16.2893 29.783C16.0692 30.5848 16.1233 31.4368 16.4432 32.2046C16.7631 32.9725 17.3306 33.6126 18.0563 34.0242C18.782 34.4358 19.6246 34.5955 20.4515 34.4781C21.2784 34.3607 22.0426 33.9728 22.6236 33.3757C23.2047 32.7786 23.5697 32.0061 23.661 31.1798C23.6759 31.1226 23.6835 31.0638 23.6836 31.0047V22.186L30.2578 24.6393C30.3645 24.679 30.4793 24.6925 30.5924 24.6785C30.7055 24.6645 30.8135 24.6234 30.9072 24.5588C31.0009 24.4942 31.0774 24.408 31.1303 24.3075C31.1832 24.2071 31.2109 24.0954 31.2109 23.9819V20.9228C31.2111 20.3032 31.0212 19.6982 30.6666 19.1889C30.312 18.6795 29.8096 18.2901 29.2265 18.0725L23.2254 15.8337Z" fill="#747582"/>
<path d="M70.2254 60.2633C70.1186 60.2236 70.0038 60.2101 69.8907 60.2241C69.7776 60.2381 69.6696 60.2792 69.576 60.3438C69.4823 60.4084 69.4057 60.4946 69.3528 60.5951C69.2999 60.6955 69.2723 60.8073 69.2722 60.9207V72.276C68.6202 71.7565 67.813 71.4676 66.9778 71.4548C66.1427 71.442 65.327 71.7061 64.6592 72.2054C63.9914 72.7047 63.5095 73.4108 63.2893 74.2127C63.0692 75.0145 63.1233 75.8665 63.4432 76.6343C63.7631 77.4022 64.3306 78.0423 65.0563 78.4539C65.782 78.8655 66.6246 79.0252 67.4515 78.9078C68.2784 78.7903 69.0426 78.4025 69.6236 77.8054C70.2047 77.2083 70.5697 76.4357 70.661 75.6095C70.6759 75.5523 70.6835 75.4935 70.6836 75.4344V66.6157L77.2578 69.069C77.3645 69.1087 77.4793 69.1222 77.5924 69.1082C77.7055 69.0942 77.8135 69.0531 77.9072 68.9885C78.0009 68.9239 78.0774 68.8377 78.1303 68.7372C78.1832 68.6368 78.2109 68.525 78.2109 68.4116V65.3525C78.2111 64.7329 78.0212 64.1279 77.6666 63.6186C77.312 63.1092 76.8096 62.7197 76.2265 62.5022L70.2254 60.2633Z" fill="#747582"/>
<path fill-rule="evenodd" clip-rule="evenodd" d="M30.2127 30.2979C29.2191 30.5321 28.5203 31.1101 27.9975 32.1309L27.5391 33.026L27.5435 47.1603C27.5478 60.4398 27.5706 61.3437 27.9223 62.1075C28.3809 63.1039 28.9043 63.586 29.9195 63.9472C30.9893 64.3279 62.5982 64.3749 63.8602 63.9976C64.9432 63.6738 65.9464 62.6986 66.2247 61.6986C66.5397 60.566 66.5397 33.77 66.2247 32.6374C65.9315 31.5837 64.8872 30.6164 63.729 30.3253C62.654 30.0554 31.3514 30.0298 30.2127 30.2979ZM35.7903 39.749H31.1044L31.046 37.6286C31.0138 36.4623 31.035 35.3845 31.093 35.2336C31.1749 35.0206 31.7138 34.972 33.4944 35.0166L35.7903 35.0741V39.749ZM53.9083 35.2918C54.3859 35.7684 54.3859 43.9329 53.9083 44.4096C53.6302 44.6868 52.7075 44.7289 46.8909 44.7289C40.2012 44.7289 40.1935 44.7285 39.8767 44.277C39.6159 43.9057 39.5594 43.1191 39.5594 39.8507C39.5594 36.5823 39.6159 35.7957 39.8767 35.4243C40.1935 34.9729 40.2012 34.9725 46.8909 34.9725C52.7075 34.9725 53.6302 35.0145 53.9083 35.2918ZM62.6834 39.749L60.5739 39.8072C59.1934 39.8452 58.3662 39.784 58.18 39.6299C57.8035 39.3181 57.7752 35.5804 58.1464 35.2101C58.3214 35.0355 59.0473 34.9769 60.5403 35.017L62.6834 35.0741V39.749ZM35.7903 49.5055H31.1044L31.046 47.3851C31.0138 46.2188 31.035 45.1409 31.093 44.9901C31.1749 44.7771 31.7138 44.7285 33.4944 44.773L35.7903 44.8305V49.5055ZM62.6834 49.5055L60.5739 49.5636C59.1934 49.6016 58.3662 49.5404 58.18 49.3864C57.8035 49.0746 57.7752 45.3368 58.1464 44.9665C58.3214 44.7919 59.0473 44.7334 60.5403 44.7734L62.6834 44.8305V49.5055ZM53.1967 49.6034C53.5803 49.7132 53.968 49.9189 54.0581 50.0608C54.1483 50.2024 54.2235 52.2098 54.2253 54.5217C54.228 58.0744 54.1789 58.7741 53.9083 59.0442C53.6302 59.3214 52.7075 59.3635 46.8909 59.3635C40.2012 59.3635 40.1935 59.3631 39.8767 58.9117C39.6159 58.5403 39.5594 57.7537 39.5594 54.4853C39.5594 50.2116 39.6631 49.7331 40.6309 49.5471C41.5882 49.3628 52.5276 49.412 53.1967 49.6034ZM35.7903 59.2619H31.1044L31.046 57.1415C31.0138 55.9752 31.035 54.8973 31.093 54.7465C31.1749 54.5335 31.7138 54.4849 33.4944 54.5294L35.7903 54.5869V59.2619ZM62.8653 54.8069C62.9334 54.9837 62.989 55.9786 62.989 57.0177C62.989 58.3869 62.9105 58.972 62.7046 59.1428C62.5184 59.2968 61.6912 59.358 60.3107 59.32L58.2012 59.2619L58.1427 57.1415C58.1105 55.9752 58.1307 54.9004 58.1874 54.7532C58.2638 54.5542 58.8625 54.4853 60.5161 54.4853C62.3576 54.4853 62.763 54.5408 62.8653 54.8069Z" fill="#747582"/>
</svg>
