<svg width="94" height="102" viewBox="0 0 94 102" fill="none" xmlns="http://www.w3.org/2000/svg">
<path fill-rule="evenodd" clip-rule="evenodd" d="M38.3239 20.9067C37.9247 21.1001 37.5632 21.5135 37.4096 21.9524C37.3453 22.1358 37.2939 23.1103 37.2939 24.1439C37.2939 25.6794 37.3237 26.0372 37.4642 26.1894C37.6164 26.354 38.6156 26.3737 46.8356 26.3737C55.2057 26.3737 56.0525 26.3563 56.2137 26.182C56.3669 26.0162 56.3863 25.7146 56.357 23.961C56.3199 21.7452 56.2852 21.6154 55.5765 21.0428C55.281 20.804 55.1723 20.8006 46.9632 20.775C40.1988 20.754 38.5886 20.7785 38.3239 20.9067ZM33.9868 30.2928C33.5877 30.4857 33.2262 30.899 33.0724 31.3381C32.9918 31.5682 32.9567 39.1204 32.9567 56.2396V80.8108H35.8224C38.2896 80.8108 38.7118 80.785 38.8593 80.6255C39.0119 80.4603 39.0275 79.7521 39.0026 74.1435L38.9745 67.8468L38.4655 67.5837C37.7094 67.1926 37.3481 66.6168 37.3481 65.8028C37.3481 64.9979 37.6595 64.4613 38.3132 64.14C38.7339 63.9333 39.1894 63.9217 46.8356 63.9217C54.4817 63.9217 54.9372 63.9333 55.3579 64.14C56.0117 64.4613 56.3231 64.9979 56.3231 65.8028C56.3231 66.6168 55.9618 67.1926 55.2056 67.5837L54.6966 67.8468L54.6686 74.1435C54.6436 79.7521 54.6592 80.4603 54.8119 80.6255C55.0688 80.9035 60.2879 80.9036 60.5448 80.6257C60.6998 80.4579 60.7133 78.1229 60.6881 55.8794L60.6602 31.3184L60.4366 30.9944C60.3137 30.8162 60.0784 30.5616 59.9137 30.4285C59.6157 30.1878 59.5533 30.1865 46.9632 30.1612C36.5847 30.1402 34.2536 30.1639 33.9868 30.2928ZM39.9789 36.0729C40.6541 36.6183 40.7094 36.8079 40.7094 38.5751C40.7094 40.3496 40.6557 40.5305 39.9628 41.0902C39.543 41.4294 38.5144 41.4294 38.0946 41.0902C37.4439 40.5646 37.3511 40.3057 37.3111 38.9064C37.2907 38.1942 37.3048 37.4339 37.3424 37.2169C37.4264 36.7328 37.8752 36.1356 38.3185 35.9179C38.7574 35.7025 39.62 35.783 39.9789 36.0729ZM47.7857 36.0729C48.4609 36.6183 48.5162 36.8079 48.5162 38.5751C48.5162 40.3496 48.4625 40.5305 47.7697 41.0902C47.3499 41.4294 46.3213 41.4294 45.9015 41.0902C45.2508 40.5646 45.158 40.3057 45.118 38.9064C45.0976 38.1942 45.1117 37.4339 45.1493 37.2169C45.2332 36.7328 45.682 36.1356 46.1254 35.9179C46.5643 35.7025 47.4268 35.783 47.7857 36.0729ZM55.5926 36.0729C56.2678 36.6183 56.3231 36.8079 56.3231 38.5751C56.3231 40.3496 56.2694 40.5305 55.5765 41.0902C55.1567 41.4294 54.1282 41.4294 53.7083 41.0902C53.0576 40.5646 52.9648 40.3057 52.9248 38.9064C52.9044 38.1942 52.9185 37.4339 52.9562 37.2169C53.0401 36.7328 53.4889 36.1356 53.9322 35.9179C54.3711 35.7025 55.2337 35.783 55.5926 36.0729ZM20.1025 42.4945C19.6661 42.7001 19.2103 43.2995 19.1324 43.77C19.098 43.9779 19.084 52.1293 19.101 61.8842C19.132 79.5887 19.1325 79.6211 19.3557 79.9444C19.4786 80.1226 19.7139 80.3772 19.8785 80.5102C20.1678 80.7441 20.327 80.7532 24.6586 80.7853C28.6511 80.8147 29.1584 80.7978 29.3132 80.6301C29.4712 80.4592 29.487 78.7279 29.487 61.5701C29.487 44.5702 29.4701 42.6798 29.3167 42.5137C29.1673 42.3522 28.6094 42.33 24.7898 42.334C21.4133 42.3375 20.3589 42.3736 20.1025 42.4945ZM64.3579 42.5101C64.2 42.681 64.1841 44.4123 64.1841 61.5701C64.1841 78.7279 64.2 80.4592 64.3579 80.6301C64.5128 80.7978 65.02 80.8147 69.0126 80.7853C73.3442 80.7532 73.5034 80.7441 73.7926 80.5102C73.9572 80.3772 74.1925 80.1226 74.3155 79.9444C74.5391 79.6205 74.5391 79.6178 74.5391 61.5701C74.5391 43.5224 74.5391 43.5197 74.3155 43.1958C74.1925 43.0176 73.9572 42.763 73.7926 42.63C73.5034 42.3962 73.3442 42.387 69.0126 42.355C65.02 42.3255 64.5128 42.3424 64.3579 42.5101ZM39.9789 45.4586C40.6541 46.004 40.7094 46.1936 40.7094 47.9608C40.7094 49.7353 40.6557 49.9162 39.9628 50.476C39.543 50.8151 38.5144 50.8151 38.0946 50.476C37.4439 49.9504 37.3511 49.6914 37.3111 48.2921C37.2907 47.5799 37.3048 46.8196 37.3424 46.6026C37.4264 46.1185 37.8752 45.5214 38.3185 45.3036C38.7574 45.0882 39.62 45.1687 39.9789 45.4586ZM47.7857 45.4586C48.4609 46.004 48.5162 46.1936 48.5162 47.9608C48.5162 49.7353 48.4625 49.9162 47.7697 50.476C47.3499 50.8151 46.3213 50.8151 45.9015 50.476C45.2508 49.9504 45.158 49.6914 45.118 48.2921C45.0976 47.5799 45.1117 46.8196 45.1493 46.6026C45.2332 46.1185 45.682 45.5214 46.1254 45.3036C46.5643 45.0882 47.4268 45.1687 47.7857 45.4586ZM55.5926 45.4586C56.2678 46.004 56.3231 46.1936 56.3231 47.9608C56.3231 49.7353 56.2694 49.9162 55.5765 50.476C55.1567 50.8151 54.1282 50.8151 53.7083 50.476C53.0576 49.9504 52.9648 49.6914 52.9248 48.2921C52.9044 47.5799 52.9185 46.8196 52.9562 46.6026C53.0401 46.1185 53.4889 45.5214 53.9322 45.3036C54.3711 45.0882 55.2337 45.1687 55.5926 45.4586ZM25.2326 50.1515C25.9078 50.6969 25.9631 50.8865 25.9631 52.6537C25.9631 54.1122 25.9401 54.3123 25.7395 54.603C25.3147 55.2186 24.9681 55.4107 24.2824 55.4107C23.597 55.4107 23.2505 55.2188 22.8254 54.6033C22.6379 54.3321 22.5958 54.0705 22.5648 52.985C22.5444 52.2727 22.5585 51.5125 22.5962 51.2955C22.6801 50.8114 23.1289 50.2142 23.5722 49.9965C24.0112 49.7811 24.8737 49.8615 25.2326 50.1515ZM70.3389 50.1515C71.0141 50.6969 71.0694 50.8865 71.0694 52.6537C71.0694 54.1122 71.0464 54.3123 70.8458 54.603C70.4209 55.2186 70.0744 55.4107 69.3887 55.4107C68.7032 55.4107 68.3568 55.2188 67.9316 54.6033C67.7442 54.3321 67.7021 54.0705 67.6711 52.985C67.6507 52.2727 67.6648 51.5125 67.7024 51.2955C67.7864 50.8114 68.2351 50.2142 68.6785 49.9965C69.1174 49.7811 69.98 49.8615 70.3389 50.1515ZM39.9789 54.8443C40.6541 55.3897 40.7094 55.5793 40.7094 57.3465C40.7094 58.8051 40.6864 59.0051 40.4858 59.2958C40.061 59.9114 39.7144 60.1036 39.0287 60.1036C38.3432 60.1036 37.9968 59.9117 37.5717 59.2962C37.3842 59.0249 37.3421 58.7633 37.3111 57.6779C37.2907 56.9656 37.3048 56.2054 37.3424 55.9883C37.4264 55.5042 37.8752 54.9071 38.3185 54.6893C38.7574 54.4739 39.62 54.5544 39.9789 54.8443ZM47.7857 54.8443C48.4609 55.3897 48.5162 55.5793 48.5162 57.3465C48.5162 58.8051 48.4932 59.0051 48.2926 59.2958C47.8678 59.9114 47.5213 60.1036 46.8356 60.1036C46.1501 60.1036 45.8037 59.9117 45.3785 59.2962C45.191 59.0249 45.149 58.7633 45.118 57.6779C45.0976 56.9656 45.1117 56.2054 45.1493 55.9883C45.2332 55.5042 45.682 54.9071 46.1254 54.6893C46.5643 54.4739 47.4268 54.5544 47.7857 54.8443ZM55.5926 54.8443C56.2678 55.3897 56.3231 55.5793 56.3231 57.3465C56.3231 58.8051 56.3001 59.0051 56.0995 59.2958C55.6747 59.9114 55.3281 60.1036 54.6424 60.1036C53.9569 60.1036 53.6105 59.9117 53.1854 59.2962C52.9979 59.0249 52.9558 58.7633 52.9248 57.6779C52.9044 56.9656 52.9185 56.2054 52.9562 55.9883C53.0401 55.5042 53.4889 54.9071 53.9322 54.6893C54.3711 54.4739 55.2337 54.5544 55.5926 54.8443ZM25.2326 58.5986C25.9078 59.144 25.9631 59.3336 25.9631 61.1008C25.9631 62.5594 25.9401 62.7594 25.7395 63.0501C25.3147 63.6657 24.9681 63.8579 24.2824 63.8579C23.597 63.8579 23.2505 63.6659 22.8254 63.0505C22.6379 62.7792 22.5958 62.5176 22.5648 61.4321C22.5444 60.7199 22.5585 59.9596 22.5962 59.7426C22.6801 59.2585 23.1289 58.6614 23.5722 58.4436C24.0112 58.2282 24.8737 58.3087 25.2326 58.5986ZM70.3389 58.5986C71.0141 59.144 71.0694 59.3336 71.0694 61.1008C71.0694 62.5594 71.0464 62.7594 70.8458 63.0501C70.4209 63.6657 70.0744 63.8579 69.3887 63.8579C68.7032 63.8579 68.3568 63.6659 67.9316 63.0505C67.7442 62.7792 67.7021 62.5176 67.6711 61.4321C67.6507 60.7199 67.6648 59.9596 67.7024 59.7426C67.7864 59.2585 68.2351 58.6614 68.6785 58.4436C69.1174 58.2282 69.98 58.3087 70.3389 58.5986ZM25.2326 67.0457C25.9078 67.5912 25.9631 67.7808 25.9631 69.548C25.9631 71.0065 25.9401 71.2065 25.7395 71.4973C25.3147 72.1128 24.9681 72.305 24.2824 72.305C23.597 72.305 23.2505 72.1131 22.8254 71.4976C22.6379 71.2264 22.5958 70.9647 22.5648 69.8793C22.5444 69.167 22.5585 68.4068 22.5962 68.1897C22.6801 67.7057 23.1289 67.1085 23.5722 66.8908C24.0112 66.6754 24.8737 66.7558 25.2326 67.0457ZM70.3389 67.0457C71.0141 67.5912 71.0694 67.7808 71.0694 69.548C71.0694 71.0065 71.0464 71.2065 70.8458 71.4973C70.4209 72.1128 70.0744 72.305 69.3887 72.305C68.7032 72.305 68.3568 72.1131 67.9316 71.4976C67.7442 71.2264 67.7021 70.9647 67.6711 69.8793C67.6507 69.167 67.6648 68.4068 67.7024 68.1897C67.7864 67.7057 68.2351 67.1085 68.6785 66.8908C69.1174 66.6754 69.98 66.7558 70.3389 67.0457ZM42.6688 67.8551C42.5182 68.0181 42.4984 68.7597 42.4984 74.2408C42.4984 79.722 42.5182 80.4636 42.6688 80.6265C42.8175 80.7874 43.3471 80.8108 46.8356 80.8108C50.324 80.8108 50.8536 80.7874 51.0024 80.6265C51.153 80.4636 51.1727 79.722 51.1727 74.2408C51.1727 68.7597 51.153 68.0181 51.0024 67.8551C50.8536 67.6943 50.324 67.6708 46.8356 67.6708C43.3471 67.6708 42.8175 67.6943 42.6688 67.8551Z" fill="#E28970"/>
</svg>
