<svg width="94" height="94" viewBox="0 0 94 94" fill="none" xmlns="http://www.w3.org/2000/svg">
<g opacity="0.8">
<path fill-rule="evenodd" clip-rule="evenodd" d="M37.6788 16.2993C37.232 16.499 36.8274 16.9261 36.6554 17.3796C36.5834 17.569 36.5259 18.5758 36.5259 19.6436C36.5259 21.2299 36.5593 21.5996 36.7166 21.7568C36.8869 21.9269 38.0052 21.9472 47.2051 21.9472C56.573 21.9472 57.5207 21.9293 57.7011 21.7492C57.8725 21.5779 57.8943 21.2663 57.8615 19.4546C57.82 17.1655 57.7812 17.0313 56.988 16.4399C56.6572 16.1931 56.5356 16.1896 47.3479 16.1631C39.7771 16.1415 37.975 16.1668 37.6788 16.2993ZM32.8246 25.9961C32.3779 26.1954 31.9733 26.6224 31.8013 27.0761C31.711 27.3138 31.6718 35.116 31.6718 52.8021V78.1869H34.879C37.6403 78.1869 38.1129 78.1603 38.2779 77.9954C38.4488 77.8248 38.4662 77.0932 38.4383 71.2988L38.4069 64.7936L37.8373 64.5218C36.9909 64.1178 36.5866 63.5229 36.5866 62.682C36.5866 61.8504 36.9351 61.296 37.6668 60.9641C38.1376 60.7506 38.6474 60.7386 47.2051 60.7386C55.7627 60.7386 56.2725 60.7506 56.7433 60.9641C57.475 61.296 57.8235 61.8504 57.8235 62.682C57.8235 63.5229 57.4192 64.1178 56.5728 64.5218L56.0032 64.7936L55.9718 71.2988C55.9439 77.0932 55.9613 77.8248 56.1322 77.9954C56.4197 78.2827 62.2609 78.2828 62.5485 77.9957C62.7219 77.8223 62.7371 75.41 62.7088 52.43L62.6777 27.0557L62.4274 26.7209C62.2898 26.5368 62.0265 26.2738 61.8421 26.1364C61.5087 25.8876 61.4388 25.8863 47.3479 25.8601C35.7323 25.8384 33.1233 25.8629 32.8246 25.9961ZM39.531 31.9676C40.2867 32.5311 40.3486 32.7269 40.3486 34.5527C40.3486 36.3859 40.2885 36.5728 39.513 37.1511C39.0432 37.5015 37.892 37.5015 37.4221 37.1511C36.6939 36.6081 36.59 36.3406 36.5452 34.895C36.5224 34.1591 36.5382 33.3737 36.5803 33.1495C36.6742 32.6494 37.1765 32.0324 37.6727 31.8075C38.164 31.5849 39.1293 31.6681 39.531 31.9676ZM48.2685 31.9676C49.0241 32.5311 49.086 32.7269 49.086 34.5527C49.086 36.3859 49.026 36.5728 48.2505 37.1511C47.7806 37.5015 46.6295 37.5015 46.1596 37.1511C45.4313 36.6081 45.3275 36.3406 45.2827 34.895C45.2599 34.1591 45.2756 33.3737 45.3178 33.1495C45.4117 32.6494 45.914 32.0324 46.4102 31.8075C46.9014 31.5849 47.8668 31.6681 48.2685 31.9676ZM57.0059 31.9676C57.7616 32.5311 57.8235 32.7269 57.8235 34.5527C57.8235 36.3859 57.7634 36.5728 56.988 37.1511C56.5181 37.5015 55.3669 37.5015 54.8971 37.1511C54.1688 36.6081 54.0649 36.3406 54.0202 34.895C53.9973 34.1591 54.0131 33.3737 54.0552 33.1495C54.1492 32.6494 54.6514 32.0324 55.1477 31.8075C55.6389 31.5849 56.6043 31.6681 57.0059 31.9676ZM17.2853 38.6018C16.7968 38.8143 16.2867 39.4335 16.1995 39.9196C16.1611 40.1343 16.1453 48.5556 16.1643 58.6336C16.199 76.9243 16.1996 76.9578 16.4494 77.2918C16.587 77.4759 16.8503 77.7389 17.0346 77.8764C17.3583 78.118 17.5365 78.1274 22.3844 78.1605C26.8529 78.1909 27.4206 78.1735 27.5939 78.0003C27.7707 77.8237 27.7884 76.035 27.7884 58.3091C27.7884 40.7463 27.7695 38.7933 27.5978 38.6217C27.4306 38.4548 26.8062 38.4319 22.5313 38.436C18.7523 38.4396 17.5722 38.477 17.2853 38.6018ZM66.8162 38.6179C66.6394 38.7945 66.6217 40.5832 66.6217 58.3091C66.6217 76.035 66.6394 77.8237 66.8162 78.0003C66.9895 78.1735 67.5572 78.1909 72.0257 78.1605C76.8736 78.1274 77.0518 78.118 77.3755 77.8764C77.5598 77.7389 77.8231 77.4759 77.9607 77.2918C78.2109 76.9572 78.2109 76.9544 78.2109 58.3091C78.2109 39.6638 78.2109 39.661 77.9607 39.3264C77.8231 39.1423 77.5598 38.8793 77.3755 38.7418C77.0518 38.5002 76.8736 38.4908 72.0257 38.4577C67.5572 38.4273 66.9895 38.4447 66.8162 38.6179ZM39.531 41.6641C40.2867 42.2276 40.3486 42.4234 40.3486 44.2492C40.3486 46.0824 40.2885 46.2693 39.513 46.8476C39.0432 47.198 37.892 47.198 37.4221 46.8476C36.6939 46.3046 36.59 46.0371 36.5452 44.5915C36.5224 43.8556 36.5382 43.0702 36.5803 42.846C36.6742 42.3459 37.1765 41.7289 37.6727 41.504C38.164 41.2814 39.1293 41.3646 39.531 41.6641ZM48.2685 41.6641C49.0241 42.2276 49.086 42.4234 49.086 44.2492C49.086 46.0824 49.026 46.2693 48.2505 46.8476C47.7806 47.198 46.6295 47.198 46.1596 46.8476C45.4313 46.3046 45.3275 46.0371 45.2827 44.5915C45.2599 43.8556 45.2756 43.0702 45.3178 42.846C45.4117 42.3459 45.914 41.7289 46.4102 41.504C46.9014 41.2814 47.8668 41.3646 48.2685 41.6641ZM57.0059 41.6641C57.7616 42.2276 57.8235 42.4234 57.8235 44.2492C57.8235 46.0824 57.7634 46.2693 56.988 46.8476C56.5181 47.198 55.3669 47.198 54.8971 46.8476C54.1688 46.3046 54.0649 46.0371 54.0202 44.5915C53.9973 43.8556 54.0131 43.0702 54.0552 42.846C54.1492 42.3459 54.6514 41.7289 55.1477 41.504C55.6389 41.2814 56.6043 41.3646 57.0059 41.6641ZM23.0269 46.5123C23.7826 47.0758 23.8445 47.2717 23.8445 49.0974C23.8445 50.6043 23.8187 50.8109 23.5942 51.1113C23.1188 51.7472 22.7309 51.9458 21.9635 51.9458C21.1963 51.9458 20.8085 51.7475 20.3327 51.1116C20.1229 50.8314 20.0758 50.5611 20.0411 49.4397C20.0183 48.7039 20.0341 47.9185 20.0762 47.6942C20.1701 47.1941 20.6724 46.5772 21.1686 46.3522C21.6598 46.1297 22.6252 46.2128 23.0269 46.5123ZM73.5101 46.5123C74.2657 47.0758 74.3276 47.2717 74.3276 49.0974C74.3276 50.6043 74.3019 50.8109 74.0774 51.1113C73.6019 51.7472 73.2141 51.9458 72.4466 51.9458C71.6794 51.9458 71.2917 51.7475 70.8159 51.1116C70.6061 50.8314 70.559 50.5611 70.5243 49.4397C70.5015 48.7039 70.5172 47.9185 70.5593 47.6942C70.6533 47.1941 71.1556 46.5772 71.6518 46.3522C72.143 46.1297 73.1084 46.2128 73.5101 46.5123ZM39.531 51.3606C40.2867 51.9241 40.3486 52.1199 40.3486 53.9457C40.3486 55.4525 40.3228 55.6592 40.0983 55.9595C39.6229 56.5955 39.235 56.794 38.4676 56.794C37.7004 56.794 37.3127 56.5957 36.8368 55.9599C36.627 55.6797 36.5799 55.4094 36.5452 54.288C36.5224 53.5521 36.5382 52.7667 36.5803 52.5425C36.6742 52.0424 37.1765 51.4254 37.6727 51.2005C38.164 50.9779 39.1293 51.0611 39.531 51.3606ZM48.2685 51.3606C49.0241 51.9241 49.086 52.1199 49.086 53.9457C49.086 55.4525 49.0603 55.6592 48.8358 55.9595C48.3603 56.5955 47.9725 56.794 47.2051 56.794C46.4379 56.794 46.0501 56.5957 45.5743 55.9599C45.3645 55.6797 45.3174 55.4094 45.2827 54.288C45.2599 53.5521 45.2756 52.7667 45.3178 52.5425C45.4117 52.0424 45.914 51.4254 46.4102 51.2005C46.9014 50.9779 47.8668 51.0611 48.2685 51.3606ZM57.0059 51.3606C57.7616 51.9241 57.8235 52.1199 57.8235 53.9457C57.8235 55.4525 57.7978 55.6592 57.5733 55.9595C57.0978 56.5955 56.71 56.794 55.9425 56.794C55.1753 56.794 54.7876 56.5957 54.3118 55.9599C54.1019 55.6797 54.0549 55.4094 54.0202 54.288C53.9973 53.5521 54.0131 52.7667 54.0552 52.5425C54.1492 52.0424 54.6514 51.4254 55.1477 51.2005C55.6389 50.9779 56.6043 51.0611 57.0059 51.3606ZM23.0269 55.2392C23.7826 55.8027 23.8445 55.9985 23.8445 57.8243C23.8445 59.3311 23.8187 59.5378 23.5942 59.8381C23.1188 60.4741 22.7309 60.6726 21.9635 60.6726C21.1963 60.6726 20.8085 60.4743 20.3327 59.8385C20.1229 59.5583 20.0758 59.288 20.0411 58.1666C20.0183 57.4307 20.0341 56.6453 20.0762 56.4211C20.1701 55.921 20.6724 55.304 21.1686 55.0791C21.6598 54.8565 22.6252 54.9397 23.0269 55.2392ZM73.5101 55.2392C74.2657 55.8027 74.3276 55.9985 74.3276 57.8243C74.3276 59.3311 74.3019 59.5378 74.0774 59.8381C73.6019 60.4741 73.2141 60.6726 72.4466 60.6726C71.6794 60.6726 71.2917 60.4743 70.8159 59.8385C70.6061 59.5583 70.559 59.288 70.5243 58.1666C70.5015 57.4307 70.5172 56.6453 70.5593 56.4211C70.6533 55.921 71.1556 55.304 71.6518 55.0791C72.143 54.8565 73.1084 54.9397 73.5101 55.2392ZM23.0269 63.966C23.7826 64.5295 23.8445 64.7254 23.8445 66.5511C23.8445 68.058 23.8187 68.2646 23.5942 68.565C23.1188 69.2009 22.7309 69.3995 21.9635 69.3995C21.1963 69.3995 20.8085 69.2012 20.3327 68.5653C20.1229 68.2851 20.0758 68.0148 20.0411 66.8934C20.0183 66.1576 20.0341 65.3722 20.0762 65.1479C20.1701 64.6478 20.6724 64.0309 21.1686 63.8059C21.6598 63.5834 22.6252 63.6665 23.0269 63.966ZM73.5101 63.966C74.2657 64.5295 74.3276 64.7254 74.3276 66.5511C74.3276 68.058 74.3019 68.2646 74.0774 68.565C73.6019 69.2009 73.2141 69.3995 72.4466 69.3995C71.6794 69.3995 71.2917 69.2012 70.8159 68.5653C70.6061 68.2851 70.559 68.0148 70.5243 66.8934C70.5015 66.1576 70.5172 65.3722 70.5593 65.1479C70.6533 64.6478 71.1556 64.0309 71.6518 63.8059C72.143 63.5834 73.1084 63.6665 73.5101 63.966ZM42.5415 64.8022C42.373 64.9706 42.3509 65.7367 42.3509 71.3994C42.3509 77.062 42.373 77.8282 42.5415 77.9965C42.708 78.1627 43.3007 78.1869 47.2051 78.1869C51.1094 78.1869 51.7021 78.1627 51.8686 77.9965C52.0371 77.8282 52.0592 77.062 52.0592 71.3994C52.0592 65.7367 52.0371 64.9706 51.8686 64.8022C51.7021 64.6361 51.1094 64.6118 47.2051 64.6118C43.3007 64.6118 42.708 64.6361 42.5415 64.8022Z" fill="#4F71A3"/>
</g>
</svg>
