<svg width="94" height="94" viewBox="0 0 94 94" fill="none" xmlns="http://www.w3.org/2000/svg">
<path d="M67.6761 25.5081C67.7524 24.5034 68.5865 23.7274 69.5898 23.7274H76.1092C77.1126 23.7274 77.9466 24.5034 78.0229 25.5081L79.8894 50.0806C79.9743 51.1995 79.0931 52.1544 77.9756 52.1544H67.7234C66.6059 52.1544 65.7247 51.1995 65.8097 50.0806L67.6761 25.5081Z" fill="#00B1A9"/>
<path fill-rule="evenodd" clip-rule="evenodd" d="M80.0469 50.9159C80.0469 48.7871 78.3283 47.0613 76.2083 47.0613H17.7917C15.6717 47.0613 13.9531 48.7871 13.9531 50.9159V75.0908C13.9531 77.2196 15.6717 78.9453 17.7917 78.9453H76.2083C78.3283 78.9453 80.0469 77.2196 80.0469 75.0908V50.9159ZM22.9732 56.0089C21.9132 56.0089 21.0539 56.8718 21.0539 57.9362V61.3089C21.0539 62.3732 21.9132 63.2361 22.9732 63.2361H34.5443C35.6043 63.2361 36.4636 62.3732 36.4636 61.3089V57.9362C36.4636 56.8718 35.6043 56.0089 34.5443 56.0089H22.9732ZM40.316 57.9362C40.316 56.8718 41.1753 56.0089 42.2353 56.0089H53.8063C54.8663 56.0089 55.7256 56.8718 55.7256 57.9362V61.3089C55.7256 62.3732 54.8663 63.2361 53.8063 63.2361H42.2353C41.1753 63.2361 40.316 62.3732 40.316 61.3089V57.9362ZM62.4605 56.0089C61.4005 56.0089 60.5412 56.8718 60.5412 57.9362V61.3089C60.5412 62.3732 61.4005 63.2361 62.4605 63.2361H73.55C74.61 63.2361 75.4693 62.3732 75.4693 61.3089V57.9362C75.4693 56.8718 74.61 56.0089 73.55 56.0089H62.4605Z" fill="#00B1A9"/>
<path d="M23.8775 38.4559L15.2868 47.9902C14.9675 48.3446 14.7907 48.8054 14.7907 49.2832V51.4317C14.7907 52.4961 15.65 53.3589 16.71 53.3589H47.225C47.803 53.3589 48.3501 53.0974 48.7146 52.647L50.8277 50.0355C51.1057 49.6919 51.2574 49.2628 51.2574 48.8202V39.363C51.2574 37.4895 48.8645 36.7176 47.7779 38.2406L43.8414 43.7581C42.7029 45.3537 40.1951 44.4188 40.3695 42.4638L40.7205 38.5283C40.8792 36.7491 38.7505 35.7292 37.473 36.9725L29.9431 44.301C28.5971 45.611 26.3712 44.4055 26.7219 42.5565L27.1861 40.1095C27.549 38.1962 25.1789 37.0116 23.8775 38.4559Z" fill="#00B1A9"/>
<path d="M46.7876 19.3677C58.5397 11.6985 68.9423 15.8601 71.7135 19.5772C72.127 20.1317 71.5945 20.7441 70.9124 20.6401C50.8147 17.5758 56.5335 23.7834 46.2192 26.1711C40.1884 27.0362 30.4836 24.9888 23.7016 19.8545C22.965 19.2968 23.4456 18.243 24.3587 18.3754C31.0357 19.3437 42.1993 21.0604 46.6048 19.4608C46.6697 19.4372 46.7297 19.4054 46.7876 19.3677Z" fill="#00B1A9"/>
</svg>
