<svg width="94" height="94" viewBox="0 0 94 94" fill="none" xmlns="http://www.w3.org/2000/svg">
<path d="M65.3787 28.0385C65.4466 27.1435 66.188 26.4522 67.0798 26.4522H72.8748C73.7667 26.4522 74.5081 27.1435 74.5759 28.0385L76.235 49.9278C76.3105 50.9245 75.5272 51.7751 74.5339 51.7751H65.4208C64.4274 51.7751 63.6441 50.9245 63.7197 49.9278L65.3787 28.0385Z" fill="#2A504E"/>
<path fill-rule="evenodd" clip-rule="evenodd" d="M76.375 50.6719C76.375 48.7755 74.8474 47.2382 72.9629 47.2382H21.0371C19.1526 47.2382 17.625 48.7755 17.625 50.6719V72.207C17.625 74.1033 19.1526 75.6406 21.0371 75.6406H72.9629C74.8474 75.6406 76.375 74.1033 76.375 72.207V50.6719ZM25.6428 55.2088C24.7006 55.2088 23.9368 55.9774 23.9368 56.9256V59.93C23.9368 60.8781 24.7006 61.6468 25.6428 61.6468H35.9282C36.8705 61.6468 37.6343 60.8782 37.6343 59.93V56.9256C37.6343 55.9774 36.8705 55.2088 35.9282 55.2088H25.6428ZM41.0586 56.9256C41.0586 55.9774 41.8225 55.2088 42.7647 55.2088H53.0501C53.9923 55.2088 54.7561 55.9774 54.7561 56.9256V59.93C54.7561 60.8782 53.9923 61.6468 53.0501 61.6468H42.7647C41.8225 61.6468 41.0586 60.8781 41.0586 59.93V56.9256ZM60.7426 55.2088C59.8004 55.2088 59.0366 55.9774 59.0366 56.9256V59.93C59.0366 60.8781 59.8004 61.6468 60.7426 61.6468H70.6C71.5422 61.6468 72.306 60.8782 72.306 59.93V56.9256C72.306 55.9774 71.5422 55.2088 70.6 55.2088H60.7426Z" fill="#2A504E"/>
<path d="M26.4466 39.5725L18.8105 48.0657C18.5267 48.3813 18.3695 48.7918 18.3695 49.2175V51.1313C18.3695 52.0795 19.1333 52.8481 20.0756 52.8481H47.2C47.7137 52.8481 48.2001 52.6152 48.5241 52.214L50.4024 49.8876C50.6495 49.5816 50.7843 49.1993 50.7843 48.805V40.3805C50.7843 38.7116 48.6573 38.024 47.6914 39.3807L44.1923 44.2957C43.1804 45.7171 40.9512 44.8843 41.1062 43.1427L41.4182 39.6369C41.5592 38.052 39.6671 37.1435 38.5316 38.251L31.8383 44.7793C30.6419 45.9462 28.6633 44.8724 28.975 43.2253L29.3876 41.0455C29.7103 39.3411 27.6034 38.2858 26.4466 39.5725Z" fill="#2A504E"/>
<path d="M46.8112 22.5686C57.2575 15.7368 66.5043 19.444 68.9676 22.7552C69.3351 23.2492 68.8618 23.7947 68.2554 23.7021C50.3909 20.9724 55.4742 26.5021 46.306 28.6291C40.9453 29.3998 32.3188 27.5759 26.2903 23.0023C25.6355 22.5055 26.0628 21.5668 26.8744 21.6847C32.8095 22.5473 42.7327 24.0765 46.6487 22.6515C46.7064 22.6305 46.7597 22.6022 46.8112 22.5686Z" fill="#2A504E"/>
</svg>
