<svg width="94" height="94" viewBox="0 0 94 94" fill="none" xmlns="http://www.w3.org/2000/svg">
<path d="M12.2714 43.1117L11.7036 45.4521C10.6391 45.8535 9.72146 46.5738 9.07351 47.5167C8.42556 48.4595 8.07826 49.5798 8.07812 50.7276V73.9063C8.07812 75.048 8.52709 76.1429 9.32627 76.9501C10.1254 77.7574 11.2093 78.2109 12.3395 78.2109H16.9288C18.059 78.2109 19.1429 77.7574 19.942 76.9501C20.7412 76.1429 21.1902 75.048 21.1902 73.9063V69.6017H42.1695V73.9063C42.1695 75.048 42.6185 76.1429 43.4176 76.9501C44.2168 77.7574 45.3007 78.2109 46.4309 78.2109H51.0201C52.1503 78.2109 53.2342 77.7574 54.0334 76.9501C54.8326 76.1429 55.2816 75.048 55.2816 73.9063V50.7276C55.2816 48.2905 53.7475 46.2137 51.601 45.4309L50.9454 43.1117H53.6426C54.0772 43.1117 54.4941 42.9373 54.8015 42.6268C55.1089 42.3163 55.2816 41.8952 55.2816 41.4561C55.2816 41.017 55.1089 40.5958 54.8015 40.2854C54.4941 39.9749 54.0772 39.8004 53.6426 39.8004H50.0092L48.7098 35.2084C48.2205 33.4786 47.1867 31.9569 45.7648 30.8735C44.343 29.7902 42.6104 29.2043 40.8294 29.2044H22.0739C20.2398 29.2046 18.4587 29.8263 17.0157 30.97C15.5727 32.1138 14.5513 33.7135 14.1149 35.513L13.0738 39.8004H9.71713C9.28244 39.8004 8.86555 39.9749 8.55818 40.2854C8.25081 40.5958 8.07812 41.017 8.07812 41.4561C8.07812 41.8952 8.25081 42.3163 8.55818 42.6268C8.86555 42.9373 9.28244 43.1117 9.71713 43.1117H12.2714ZM22.0726 32.5157H40.8321C41.9005 32.5159 42.9397 32.8676 43.7926 33.5177C44.6454 34.1677 45.2655 35.0806 45.559 36.1183L48.0975 45.0984H15.1639L17.2972 36.3011C17.559 35.2213 18.1718 34.2615 19.0376 33.5752C19.9034 32.8888 20.9721 32.5158 22.0726 32.5157ZM45.4475 69.6017H52.0035V73.9063C52.0035 74.1698 51.8999 74.4224 51.7155 74.6087C51.5311 74.795 51.281 74.8997 51.0201 74.8997H46.4309C46.1701 74.8997 45.92 74.795 45.7355 74.6087C45.5511 74.4224 45.4475 74.1698 45.4475 73.9063V69.6017ZM11.3561 73.9063V69.6017H17.9122V73.9063C17.9122 74.1698 17.8086 74.4224 17.6241 74.6087C17.4397 74.795 17.1896 74.8997 16.9288 74.8997H12.3395C12.0787 74.8997 11.8286 74.795 11.6442 74.6087C11.4598 74.4224 11.3561 74.1698 11.3561 73.9063ZM18.5678 58.3434C17.8723 58.3434 17.2053 58.0644 16.7135 57.5676C16.2217 57.0708 15.9454 56.397 15.9454 55.6944C15.9454 54.9919 16.2217 54.3181 16.7135 53.8213C17.2053 53.3245 17.8723 53.0454 18.5678 53.0454C19.2633 53.0454 19.9303 53.3245 20.4221 53.8213C20.9139 54.3181 21.1902 54.9919 21.1902 55.6944C21.1902 56.397 20.9139 57.0708 20.4221 57.5676C19.9303 58.0644 19.2633 58.3434 18.5678 58.3434ZM47.4143 55.6944C47.4143 56.397 47.138 57.0708 46.6462 57.5676C46.1544 58.0644 45.4874 58.3434 44.7919 58.3434C44.0964 58.3434 43.4294 58.0644 42.9376 57.5676C42.4458 57.0708 42.1695 56.397 42.1695 55.6944C42.1695 54.9919 42.4458 54.3181 42.9376 53.8213C43.4294 53.3245 44.0964 53.0454 44.7919 53.0454C45.4874 53.0454 46.1544 53.3245 46.6462 53.8213C47.138 54.3181 47.4143 54.9919 47.4143 55.6944ZM26.7628 58.3434H36.5969C37.0316 58.3434 37.4485 58.5179 37.7558 58.8284C38.0632 59.1388 38.2359 59.56 38.2359 59.9991C38.2359 60.4382 38.0632 60.8593 37.7558 61.1698C37.4485 61.4803 37.0316 61.6547 36.5969 61.6547H26.7628C26.3281 61.6547 25.9112 61.4803 25.6039 61.1698C25.2965 60.8593 25.1238 60.4382 25.1238 59.9991C25.1238 59.56 25.2965 59.1388 25.6039 58.8284C25.9112 58.5179 26.3281 58.3434 26.7628 58.3434Z" fill="#587B9E"/>
<path fill-rule="evenodd" clip-rule="evenodd" d="M67.8422 22.6312H72.3622C73.5609 22.6312 74.7106 23.1102 75.5582 23.9627C76.4059 24.8152 76.8821 25.9715 76.8821 27.1771V28.6924C76.8821 29.8981 76.4059 31.0544 75.5582 31.9069C74.7106 32.7594 73.5609 33.2384 72.3622 33.2384H69.3489V36.269C69.3489 36.6709 69.1901 37.0563 68.9076 37.3405C68.625 37.6246 68.2418 37.7843 67.8422 37.7843C67.4426 37.7843 67.0594 37.6246 66.7769 37.3405C66.4943 37.0563 66.3356 36.6709 66.3356 36.269V24.1465C66.3356 23.7446 66.4943 23.3592 66.7769 23.075C67.0594 22.7909 67.4426 22.6312 67.8422 22.6312ZM73.4275 29.7639C73.7101 29.4798 73.8688 29.0943 73.8688 28.6924V27.1771C73.8688 26.7753 73.7101 26.3898 73.4275 26.1057C73.145 25.8215 72.7617 25.6618 72.3622 25.6618H69.3489V30.2078H72.3622C72.7617 30.2078 73.145 30.0481 73.4275 29.7639Z" fill="#587B9E"/>
<path fill-rule="evenodd" clip-rule="evenodd" d="M62.4851 17.6084C64.9627 15.9434 67.8757 15.0547 70.8555 15.0547C72.8341 15.0547 74.7932 15.4466 76.6212 16.2081C78.4491 16.9697 80.11 18.0858 81.509 19.4929C82.9081 20.9 84.0179 22.5705 84.775 24.4089C85.5322 26.2474 85.9219 28.2178 85.9219 30.2078C85.9219 33.2047 85.0383 36.1344 83.3827 38.6263C81.7272 41.1183 79.3742 43.0605 76.6212 44.2074C75.2387 44.7833 73.7866 45.1457 72.3132 45.2897V75.7661C72.3132 76.6119 71.6315 77.2976 70.7906 77.2976C69.9496 77.2976 69.2679 76.6119 69.2679 75.7661V45.2765C68.8157 45.2283 68.3647 45.1594 67.9162 45.0697C64.9936 44.485 62.309 43.0418 60.202 40.9226C58.0949 38.8034 56.66 36.1034 56.0786 33.164C55.4973 30.2246 55.7957 27.1778 56.936 24.4089C58.0763 21.6401 60.0074 19.2735 62.4851 17.6084ZM64.1592 40.2872C66.1413 41.6192 68.4716 42.3302 70.8555 42.3302C74.0522 42.3302 77.1179 41.053 79.3783 38.7796C81.6387 36.5062 82.9086 33.4228 82.9086 30.2078C82.9086 27.8102 82.2017 25.4664 80.8773 23.4729C79.5529 21.4794 77.6704 19.9256 75.468 19.0081C73.2656 18.0905 70.8421 17.8505 68.5041 18.3182C66.166 18.786 64.0183 19.9405 62.3327 21.6359C60.647 23.3312 59.4991 25.4913 59.034 27.8428C58.5689 30.1943 58.8076 32.6317 59.7199 34.8468C60.6322 37.0619 62.177 38.9552 64.1592 40.2872Z" fill="#587B9E"/>
</svg>
