<svg width="94" height="94" viewBox="0 0 94 94" fill="none" xmlns="http://www.w3.org/2000/svg">
<path d="M20.5258 11.3828C19.2695 11.3828 18.0647 11.8819 17.1764 12.7702C16.2881 13.6585 15.7891 14.8633 15.7891 16.1195V57.1711C15.7891 58.4274 16.2881 59.6322 17.1764 60.5205C18.0647 61.4088 19.2695 61.9078 20.5258 61.9078H37.8938V51.4365C37.8938 49.0271 38.8916 46.7314 40.6537 45.0893L53.6828 32.9223V31.9086C53.6828 30.6523 53.1838 29.4475 52.2955 28.5592C51.4072 27.6709 50.2024 27.1719 48.9461 27.1719H44.2094V16.1195C44.2094 14.8633 43.7103 13.6585 42.822 12.7702C41.9337 11.8819 40.7289 11.3828 39.4727 11.3828H20.5258ZM28.4203 23.2246C28.4203 23.8527 28.1708 24.4551 27.7266 24.8993C27.2825 25.3434 26.6801 25.593 26.052 25.593C25.4238 25.593 24.8214 25.3434 24.3773 24.8993C23.9331 24.4551 23.6836 23.8527 23.6836 23.2246C23.6836 22.5965 23.9331 21.9941 24.3773 21.5499C24.8214 21.1058 25.4238 20.8563 26.052 20.8563C26.6801 20.8563 27.2825 21.1058 27.7266 21.5499C28.1708 21.9941 28.4203 22.5965 28.4203 23.2246ZM26.052 35.0664C25.4238 35.0664 24.8214 34.8169 24.3773 34.3727C23.9331 33.9286 23.6836 33.3262 23.6836 32.698C23.6836 32.0699 23.9331 31.4675 24.3773 31.0234C24.8214 30.5792 25.4238 30.3297 26.052 30.3297C26.6801 30.3297 27.2825 30.5792 27.7266 31.0234C28.1708 31.4675 28.4203 32.0699 28.4203 32.698C28.4203 33.3262 28.1708 33.9286 27.7266 34.3727C27.2825 34.8169 26.6801 35.0664 26.052 35.0664ZM28.4203 42.1715C28.4203 42.7996 28.1708 43.402 27.7266 43.8462C27.2825 44.2903 26.6801 44.5398 26.052 44.5398C25.4238 44.5398 24.8214 44.2903 24.3773 43.8462C23.9331 43.402 23.6836 42.7996 23.6836 42.1715C23.6836 41.5434 23.9331 40.941 24.3773 40.4968C24.8214 40.0527 25.4238 39.8031 26.052 39.8031C26.6801 39.8031 27.2825 40.0527 27.7266 40.4968C28.1708 40.941 28.4203 41.5434 28.4203 42.1715ZM33.9465 25.593C33.3184 25.593 32.716 25.3434 32.2718 24.8993C31.8276 24.4551 31.5781 23.8527 31.5781 23.2246C31.5781 22.5965 31.8276 21.9941 32.2718 21.5499C32.716 21.1058 33.3184 20.8563 33.9465 20.8563C34.5746 20.8563 35.177 21.1058 35.6212 21.5499C36.0653 21.9941 36.3148 22.5965 36.3148 23.2246C36.3148 23.8527 36.0653 24.4551 35.6212 24.8993C35.177 25.3434 34.5746 25.593 33.9465 25.593ZM36.3148 32.698C36.3148 33.3262 36.0653 33.9286 35.6212 34.3727C35.177 34.8169 34.5746 35.0664 33.9465 35.0664C33.3184 35.0664 32.716 34.8169 32.2718 34.3727C31.8276 33.9286 31.5781 33.3262 31.5781 32.698C31.5781 32.0699 31.8276 31.4675 32.2718 31.0234C32.716 30.5792 33.3184 30.3297 33.9465 30.3297C34.5746 30.3297 35.177 30.5792 35.6212 31.0234C36.0653 31.4675 36.3148 32.0699 36.3148 32.698ZM33.9465 44.5398C33.6355 44.5398 33.3275 44.4786 33.0402 44.3596C32.7528 44.2405 32.4917 44.0661 32.2718 43.8462C32.0519 43.6262 31.8774 43.3652 31.7584 43.0778C31.6394 42.7905 31.5781 42.4825 31.5781 42.1715C31.5781 41.8605 31.6394 41.5525 31.7584 41.2652C31.8774 40.9778 32.0519 40.7167 32.2718 40.4968C32.4917 40.2769 32.7528 40.1024 33.0402 39.9834C33.3275 39.8644 33.6355 39.8031 33.9465 39.8031C34.5746 39.8031 35.177 40.0527 35.6212 40.4968C36.0653 40.941 36.3148 41.5434 36.3148 42.1715C36.3148 42.7996 36.0653 43.402 35.6212 43.8462C35.177 44.2903 34.5746 44.5398 33.9465 44.5398ZM63.7689 34.8738C62.7456 33.9188 61.3981 33.3877 59.9984 33.3877C58.5988 33.3877 57.2513 33.9188 56.228 34.8738L42.8073 47.3977C42.253 47.9149 41.8111 48.5407 41.5091 49.2361C41.207 49.9314 41.0513 50.6815 41.0516 51.4397V69.8023C41.0516 71.0586 41.5506 72.2634 42.4389 73.1517C43.3272 74.04 44.532 74.5391 45.7883 74.5391H52.1039C53.3602 74.5391 54.565 74.04 55.4533 73.1517C56.3416 72.2634 56.8406 71.0586 56.8406 69.8023V61.9078H63.1562V69.8023C63.1562 71.0586 63.6553 72.2634 64.5436 73.1517C65.4319 74.04 66.6367 74.5391 67.893 74.5391H74.2086C75.4649 74.5391 76.6697 74.04 77.558 73.1517C78.4463 72.2634 78.9453 71.0586 78.9453 69.8023V51.4397C78.9456 50.6815 78.7898 49.9314 78.4878 49.2361C78.1857 48.5407 77.7438 47.9149 77.1896 47.3977L63.7689 34.8738ZM59.4585 38.3347C59.6048 38.1975 59.7978 38.1212 59.9984 38.1212C60.199 38.1212 60.3921 38.1975 60.5384 38.3347L73.9591 50.8618C74.0381 50.9358 74.101 51.0254 74.1439 51.1248C74.1869 51.2242 74.2089 51.3314 74.2086 51.4397V69.8023H67.893V61.9078C67.893 60.6516 67.3939 59.4468 66.5056 58.5584C65.6173 57.6701 64.4125 57.1711 63.1562 57.1711H56.8406C55.5844 57.1711 54.3796 57.6701 53.4913 58.5584C52.603 59.4468 52.1039 60.6516 52.1039 61.9078V69.8023H45.7883V51.4397C45.7884 51.3312 45.8109 51.2238 45.8544 51.1244C45.8978 51.025 45.9613 50.9356 46.0409 50.8618L59.4616 38.3347H59.4585ZM38.6832 11.3828H21.3152H38.6832Z" fill="#549276"/>
</svg>
