<svg width="94" height="94" viewBox="0 0 94 94" fill="none" xmlns="http://www.w3.org/2000/svg">
<path d="M17.0375 11.75C15.6352 11.75 14.2903 12.3071 13.2987 13.2987C12.3071 14.2903 11.75 15.6352 11.75 17.0375V62.8625C11.75 64.2648 12.3071 65.6097 13.2987 66.6013C14.2903 67.5929 15.6352 68.15 17.0375 68.15H36.425V56.4611C36.425 53.7715 37.5389 51.2089 39.5058 49.3759L54.05 35.794V34.6625C54.05 33.2602 53.4929 31.9153 52.5013 30.9237C51.5097 29.9321 50.1648 29.375 48.7625 29.375H43.475V17.0375C43.475 15.6352 42.9179 14.2903 41.9263 13.2987C40.9347 12.3071 39.5898 11.75 38.1875 11.75H17.0375ZM25.85 24.9688C25.85 25.6699 25.5715 26.3424 25.0757 26.8382C24.5799 27.334 23.9074 27.6125 23.2063 27.6125C22.5051 27.6125 21.8326 27.334 21.3368 26.8382C20.841 26.3424 20.5625 25.6699 20.5625 24.9688C20.5625 24.2676 20.841 23.5951 21.3368 23.0993C21.8326 22.6035 22.5051 22.325 23.2063 22.325C23.9074 22.325 24.5799 22.6035 25.0757 23.0993C25.5715 23.5951 25.85 24.2676 25.85 24.9688ZM23.2063 38.1875C22.5051 38.1875 21.8326 37.909 21.3368 37.4132C20.841 36.9174 20.5625 36.2449 20.5625 35.5438C20.5625 34.8426 20.841 34.1701 21.3368 33.6743C21.8326 33.1785 22.5051 32.9 23.2063 32.9C23.9074 32.9 24.5799 33.1785 25.0757 33.6743C25.5715 34.1701 25.85 34.8426 25.85 35.5438C25.85 36.2449 25.5715 36.9174 25.0757 37.4132C24.5799 37.909 23.9074 38.1875 23.2063 38.1875ZM25.85 46.1188C25.85 46.8199 25.5715 47.4924 25.0757 47.9882C24.5799 48.484 23.9074 48.7625 23.2063 48.7625C22.5051 48.7625 21.8326 48.484 21.3368 47.9882C20.841 47.4924 20.5625 46.8199 20.5625 46.1188C20.5625 45.4176 20.841 44.7451 21.3368 44.2493C21.8326 43.7535 22.5051 43.475 23.2063 43.475C23.9074 43.475 24.5799 43.7535 25.0757 44.2493C25.5715 44.7451 25.85 45.4176 25.85 46.1188ZM32.0188 27.6125C31.3176 27.6125 30.6451 27.334 30.1493 26.8382C29.6535 26.3424 29.375 25.6699 29.375 24.9688C29.375 24.2676 29.6535 23.5951 30.1493 23.0993C30.6451 22.6035 31.3176 22.325 32.0188 22.325C32.7199 22.325 33.3924 22.6035 33.8882 23.0993C34.384 23.5951 34.6625 24.2676 34.6625 24.9688C34.6625 25.6699 34.384 26.3424 33.8882 26.8382C33.3924 27.334 32.7199 27.6125 32.0188 27.6125V27.6125ZM34.6625 35.5438C34.6625 36.2449 34.384 36.9174 33.8882 37.4132C33.3924 37.909 32.7199 38.1875 32.0188 38.1875C31.3176 38.1875 30.6451 37.909 30.1493 37.4132C29.6535 36.9174 29.375 36.2449 29.375 35.5438C29.375 34.8426 29.6535 34.1701 30.1493 33.6743C30.6451 33.1785 31.3176 32.9 32.0188 32.9C32.7199 32.9 33.3924 33.1785 33.8882 33.6743C34.384 34.1701 34.6625 34.8426 34.6625 35.5438V35.5438ZM32.0188 48.7625C31.6716 48.7625 31.3278 48.6941 31.007 48.5613C30.6863 48.4284 30.3948 48.2337 30.1493 47.9882C29.9038 47.7427 29.7091 47.4512 29.5762 47.1305C29.4434 46.8097 29.375 46.4659 29.375 46.1188C29.375 45.7716 29.4434 45.4278 29.5762 45.107C29.7091 44.7863 29.9038 44.4948 30.1493 44.2493C30.3948 44.0038 30.6863 43.8091 31.007 43.6762C31.3278 43.5434 31.6716 43.475 32.0188 43.475C32.7199 43.475 33.3924 43.7535 33.8882 44.2493C34.384 44.7451 34.6625 45.4176 34.6625 46.1188C34.6625 46.8199 34.384 47.4924 33.8882 47.9882C33.3924 48.484 32.7199 48.7625 32.0188 48.7625V48.7625ZM65.3089 37.9725C64.1666 36.9065 62.6624 36.3136 61.1 36.3136C59.5376 36.3136 58.0334 36.9065 56.8912 37.9725L41.9099 51.9526C41.2912 52.53 40.7979 53.2286 40.4607 54.0048C40.1236 54.781 39.9497 55.6183 39.95 56.4646V76.9625C39.95 78.3648 40.5071 79.7097 41.4987 80.7013C42.4903 81.6929 43.8352 82.25 45.2375 82.25H52.2875C53.6898 82.25 55.0347 81.6929 56.0263 80.7013C57.0179 79.7097 57.575 78.3648 57.575 76.9625V68.15H64.625V76.9625C64.625 78.3648 65.1821 79.7097 66.1737 80.7013C67.1653 81.6929 68.5102 82.25 69.9125 82.25H76.9625C78.3648 82.25 79.7097 81.6929 80.7013 80.7013C81.6929 79.7097 82.25 78.3648 82.25 76.9625V56.4646C82.2503 55.6183 82.0764 54.781 81.7393 54.0048C81.4021 53.2286 80.9088 52.53 80.2901 51.9526L65.3089 37.9725ZM60.4972 41.8359C60.6606 41.6827 60.8761 41.5975 61.1 41.5975C61.3239 41.5975 61.5394 41.6827 61.7028 41.8359L76.684 55.8196C76.7722 55.9022 76.8424 56.0022 76.8903 56.1131C76.9382 56.2241 76.9628 56.3438 76.9625 56.4646V76.9625H69.9125V68.15C69.9125 66.7477 69.3554 65.4028 68.3638 64.4112C67.3722 63.4196 66.0273 62.8625 64.625 62.8625H57.575C56.1727 62.8625 54.8278 63.4196 53.8362 64.4112C52.8446 65.4028 52.2875 66.7477 52.2875 68.15V76.9625H45.2375V56.4646C45.2376 56.3435 45.2628 56.2237 45.3113 56.1127C45.3598 56.0017 45.4307 55.9019 45.5195 55.8196L60.5008 41.8359H60.4972ZM37.3063 11.75H17.9188H37.3063Z" fill="#FBB835"/>
</svg>
