<svg width="94" height="94" viewBox="0 0 94 94" fill="none" xmlns="http://www.w3.org/2000/svg">
<path d="M34.8828 13.0352C34.8828 11.5142 36.1158 10.2812 37.6367 10.2812H64.8086C66.3296 10.2812 67.5625 11.5142 67.5625 13.0352C67.5625 14.5561 66.3296 15.7891 64.8086 15.7891H37.6367C36.1158 15.7891 34.8828 14.5561 34.8828 13.0352Z" fill="#437A86"/>
<path d="M39.6563 15.139C39.6563 14.0785 40.516 13.2188 41.5765 13.2188H60.8689C61.9294 13.2188 62.7891 14.0785 62.7891 15.139C62.7891 15.8491 62.3862 16.4815 61.7006 16.6666C60.2406 17.0606 57.1201 17.625 51.2227 17.625C45.3253 17.625 42.2048 17.0606 40.7448 16.6666C40.0592 16.4815 39.6563 15.8491 39.6563 15.139Z" fill="#437A86"/>
<path fill-rule="evenodd" clip-rule="evenodd" d="M44.0214 12.5211C44.0218 12.5212 44.0222 12.5213 43.6974 13.9441L44.0222 12.5213C44.813 12.7018 45.3078 13.4892 45.1273 14.28C44.9468 15.0707 44.1596 15.5654 43.3689 15.3852C43.3688 15.3852 43.3689 15.3852 43.3689 15.3852C43.3688 15.3852 43.3686 15.3851 43.3685 15.3851L43.3609 15.3834L43.3296 15.3764C43.3009 15.37 43.2569 15.3604 43.1986 15.3479C43.0819 15.323 42.9082 15.2867 42.6855 15.2428C42.24 15.1549 41.6005 15.0365 40.8325 14.9167C39.2895 14.6759 37.26 14.434 35.2569 14.4121C33.2163 14.3898 31.3725 14.5999 30.1026 15.1471C29.4854 15.4131 29.0796 15.7267 28.832 16.0596C28.5996 16.3721 28.4412 16.7873 28.4566 17.4048C28.5489 21.0991 28.5947 37.8781 28.6177 53.6991C28.6292 61.6172 28.6349 69.3057 28.6378 75.0146C28.6392 77.869 28.6399 80.2287 28.6403 81.8747C28.6405 82.6977 28.6405 83.3423 28.6406 83.7812L28.6406 84.4525C28.6406 84.453 28.6406 84.4532 27.1719 84.4532C25.7031 84.4532 25.7031 84.453 25.7031 84.4525L25.7031 83.7814C25.703 83.3427 25.703 82.6982 25.7028 81.8753C25.7024 80.2295 25.7017 77.8702 25.7003 75.0161C25.6974 69.3077 25.6917 61.6202 25.6802 53.7033C25.6572 37.8544 25.6112 21.1275 25.52 17.4782C25.4895 16.2597 25.8188 15.1889 26.4749 14.3066C27.1159 13.4447 27.9996 12.8547 28.9401 12.4495C30.7855 11.6542 33.13 11.4512 35.289 11.4748C37.4857 11.4988 39.6673 11.7618 41.2855 12.0143C42.0982 12.1412 42.7768 12.2667 43.2543 12.3609C43.4932 12.408 43.6821 12.4474 43.8128 12.4754C43.8782 12.4894 43.929 12.5005 43.9642 12.5083L44.0053 12.5174L44.0168 12.52L44.0214 12.5211ZM27.1719 84.4532H25.7031C25.7031 85.2644 26.3607 85.9219 27.1719 85.9219C27.9831 85.9219 28.6406 85.2644 28.6406 84.4532H27.1719Z" fill="#437A86"/>
<path fill-rule="evenodd" clip-rule="evenodd" d="M43.096 19.1665C43.4614 19.3424 43.615 19.7813 43.439 20.1467L41.0523 25.1037C40.8764 25.4692 40.4375 25.6228 40.0721 25.4468C39.7066 25.2709 39.553 24.832 39.729 24.4666L42.1157 19.5095C42.2916 19.1441 42.7305 18.9905 43.096 19.1665Z" fill="#437A86"/>
<path fill-rule="evenodd" clip-rule="evenodd" d="M51.0233 19.0939C51.4288 19.1025 51.7506 19.4382 51.742 19.8437L51.6258 25.3441C51.6173 25.7496 51.2816 26.0714 50.8761 26.0628C50.4706 26.0543 50.1488 25.7186 50.1574 25.3131L50.2736 19.8126C50.2821 19.4071 50.6178 19.0854 51.0233 19.0939Z" fill="#437A86"/>
<path fill-rule="evenodd" clip-rule="evenodd" d="M58.6156 19.4325C58.9888 19.2738 59.42 19.4478 59.5787 19.8211L61.7308 24.8844C61.8895 25.2576 61.7155 25.6888 61.3422 25.8475C60.969 26.0062 60.5377 25.8322 60.3791 25.4589L58.227 20.3956C58.0683 20.0223 58.2423 19.5911 58.6156 19.4325Z" fill="#437A86"/>
</svg>
