<svg width="94" height="94" viewBox="0 0 94 94" fill="none" xmlns="http://www.w3.org/2000/svg">
<path d="M35.0684 10.9256C35.0684 9.35299 36.3498 8.07812 37.9304 8.07812H66.1692C67.7499 8.07812 69.0312 9.35299 69.0312 10.9256C69.0312 12.4982 67.7499 13.7731 66.1692 13.7731H37.9304C36.3498 13.7731 35.0684 12.4982 35.0684 10.9256Z" fill="#ED9A1D"/>
<path d="M40.0293 13.1009C40.0293 12.0044 40.9227 11.1154 42.0249 11.1154H62.0748C63.1769 11.1154 64.0704 12.0044 64.0704 13.1009C64.0704 13.8351 63.6517 14.4891 62.9392 14.6804C61.4218 15.0879 58.1788 15.6714 52.0498 15.6714C45.9209 15.6714 42.6778 15.0879 41.1605 14.6804C40.448 14.4891 40.0293 13.8351 40.0293 13.1009Z" fill="#ED9A1D"/>
<path fill-rule="evenodd" clip-rule="evenodd" d="M44.5658 10.3941C44.5662 10.3942 44.5666 10.3942 44.2291 11.8655L44.5666 10.3942C45.3885 10.5809 45.9027 11.3951 45.7151 12.2128C45.5275 13.0303 44.7094 13.5419 43.8876 13.3555C43.8876 13.3555 43.8877 13.3555 43.8876 13.3555C43.8876 13.3555 43.8873 13.3554 43.8872 13.3554L43.8794 13.3536L43.8468 13.3464C43.817 13.3398 43.7712 13.3299 43.7106 13.317C43.5894 13.2912 43.4088 13.2537 43.1775 13.2083C42.7145 13.1174 42.0498 12.995 41.2517 12.8711C39.6481 12.6221 37.5389 12.372 35.4572 12.3493C33.3364 12.3263 31.4203 12.5435 30.1005 13.1093C29.459 13.3844 29.0373 13.7086 28.78 14.0528C28.5385 14.376 28.3738 14.8052 28.3898 15.4437C28.4858 19.2636 28.5334 36.6127 28.5573 52.9713C28.5692 61.1584 28.5751 69.1082 28.5781 75.0111C28.5796 77.9625 28.5804 80.4023 28.5807 82.1043C28.5809 82.9552 28.581 83.6217 28.5811 84.0755L28.5811 84.7697C28.5811 84.7702 28.5811 84.7704 27.0547 84.7704C25.5283 84.7704 25.5283 84.7702 25.5283 84.7697L25.5282 84.0758C25.5282 83.6222 25.5281 82.9558 25.5279 82.1049C25.5275 80.4032 25.5268 77.9637 25.5253 75.0126C25.5223 69.1103 25.5163 61.1616 25.5044 52.9757C25.4805 36.5882 25.4328 19.2929 25.338 15.5196C25.3063 14.2597 25.6484 13.1525 26.3304 12.2403C26.9965 11.3491 27.9149 10.7391 28.8923 10.32C30.8102 9.49772 33.2467 9.2878 35.4905 9.3122C37.7734 9.33702 40.0407 9.60894 41.7225 9.87009C42.5671 10.0012 43.2724 10.131 43.7686 10.2284C44.0168 10.2772 44.2132 10.3179 44.349 10.3468C44.417 10.3613 44.4698 10.3728 44.5064 10.3808L44.549 10.3903L44.561 10.393L44.5658 10.3941ZM27.0547 84.7704H25.5283C25.5283 85.6091 26.2117 86.2891 27.0547 86.2891C27.8977 86.2891 28.5811 85.6091 28.5811 84.7704H27.0547Z" fill="#ED9A1D"/>
<path fill-rule="evenodd" clip-rule="evenodd" d="M43.604 17.2652C43.9838 17.4472 44.1434 17.901 43.9606 18.2788L41.4801 23.4043C41.2973 23.7821 40.8412 23.941 40.4614 23.759C40.0816 23.5771 39.922 23.1233 40.1048 22.7455L42.5853 17.62C42.7681 17.2421 43.2242 17.0833 43.604 17.2652Z" fill="#ED9A1D"/>
<path fill-rule="evenodd" clip-rule="evenodd" d="M51.8426 17.1903C52.264 17.1991 52.5984 17.5462 52.5895 17.9655L52.4688 23.6528C52.4599 24.0721 52.1111 24.4048 51.6896 24.3959C51.2682 24.3871 50.9338 24.04 50.9427 23.6208L51.0635 17.9334C51.0724 17.5141 51.4212 17.1814 51.8426 17.1903Z" fill="#ED9A1D"/>
<path fill-rule="evenodd" clip-rule="evenodd" d="M59.733 17.5403C60.1209 17.3763 60.569 17.5562 60.7339 17.9421L62.9706 23.1775C63.1354 23.5634 62.9546 24.0093 62.5667 24.1733C62.1788 24.3374 61.7306 24.1575 61.5658 23.7715L59.3291 18.5362C59.1643 18.1502 59.3451 17.7044 59.733 17.5403Z" fill="#ED9A1D"/>
</svg>
