<svg width="94" height="94" viewBox="0 0 94 94" fill="none" xmlns="http://www.w3.org/2000/svg">
<path d="M27.1503 50.4013C27.1503 49.4621 27.9118 48.7007 28.8512 48.7007H65.516C66.4554 48.7007 67.2169 49.4621 67.2169 50.4013C67.2169 51.3406 66.4554 52.102 65.516 52.102H28.8512C27.9118 52.102 27.1503 51.3406 27.1503 50.4013Z" fill="#707172"/>
<path d="M43.7817 52.102H50.5855V77.8008C50.5855 78.6357 49.9086 79.3125 49.0735 79.3125H45.2937C44.4586 79.3125 43.7817 78.6357 43.7817 77.8008V52.102Z" fill="#707172"/>
<path fill-rule="evenodd" clip-rule="evenodd" d="M15.0547 19.9784C15.0547 17.0563 17.4239 14.6875 20.3465 14.6875H74.0207C76.9433 14.6875 79.3125 17.0563 79.3125 19.9784V44.5435C79.3125 47.4656 76.9433 49.8344 74.0207 49.8344H20.3465C17.4239 49.8344 15.0547 47.4656 15.0547 44.5435V19.9784ZM22.6144 27.159C22.6144 25.4892 23.9683 24.1356 25.6383 24.1356H38.4899C40.1599 24.1356 41.5138 25.4892 41.5138 27.159V37.7409C41.5138 39.4106 40.1599 40.7643 38.4899 40.7643H25.6383C23.9683 40.7643 22.6144 39.4106 22.6144 37.7409V27.159ZM50.0185 25.2694C49.2878 25.2694 48.6955 25.8616 48.6955 26.5921C48.6955 27.3226 49.2878 27.9148 50.0185 27.9148H70.0518C70.7825 27.9148 71.3748 27.3226 71.3748 26.5921C71.3748 25.8616 70.7825 25.2694 70.0518 25.2694H50.0185ZM50.0185 31.2884C49.2878 31.2884 48.6955 31.8806 48.6955 32.6111C48.6955 33.3416 49.2878 33.9338 50.0185 33.9338H70.0518C70.7825 33.9338 71.3748 33.3416 71.3748 32.6111C71.3748 31.8806 70.7825 31.2884 70.0518 31.2884H50.0185ZM48.6955 38.6302C48.6955 37.8997 49.2878 37.3075 50.0185 37.3075H70.0518C70.7825 37.3075 71.3748 37.8997 71.3748 38.6302C71.3748 39.3607 70.7825 39.953 70.0518 39.953H50.0185C49.2878 39.953 48.6955 39.3607 48.6955 38.6302Z" fill="#707172"/>
</svg>
