<svg width="94" height="102" viewBox="0 0 94 102" fill="none" xmlns="http://www.w3.org/2000/svg">
<path d="M27.5391 54.3551C27.5391 53.3741 28.2788 52.5789 29.1914 52.5789H64.8086C65.7212 52.5789 66.4609 53.3741 66.4609 54.3551C66.4609 55.3361 65.7212 56.1314 64.8086 56.1314H29.1914C28.2788 56.1314 27.5391 55.3361 27.5391 54.3551Z" fill="#378899"/>
<path d="M43.6953 56.1314H50.3047V82.9728C50.3047 83.8448 49.6471 84.5517 48.8359 84.5517H45.1641C44.3529 84.5517 43.6953 83.8448 43.6953 82.9728V56.1314Z" fill="#378899"/>
<path fill-rule="evenodd" clip-rule="evenodd" d="M15.7891 22.5796C15.7891 19.5276 18.0906 17.0535 20.9297 17.0535H73.0703C75.9094 17.0535 78.2109 19.5276 78.2109 22.5796V48.2369C78.2109 51.2889 75.9094 53.763 73.0703 53.763H20.9297C18.0906 53.763 15.7891 51.2889 15.7891 48.2369V22.5796ZM23.1328 30.0794C23.1328 28.3354 24.448 26.9216 26.0703 26.9216H38.5547C40.177 26.9216 41.4922 28.3354 41.4922 30.0794V41.1318C41.4922 42.8758 40.177 44.2896 38.5547 44.2896H26.0703C24.448 44.2896 23.1328 42.8758 23.1328 41.1318V30.0794ZM49.7539 28.1058C49.0441 28.1058 48.4688 28.7243 48.4688 29.4874C48.4688 30.2504 49.0441 30.8689 49.7539 30.8689H69.2148C69.9246 30.8689 70.5 30.2504 70.5 29.4874C70.5 28.7243 69.9246 28.1058 69.2148 28.1058H49.7539ZM49.7539 34.3924C49.0441 34.3924 48.4688 35.011 48.4688 35.774C48.4688 36.537 49.0441 37.1555 49.7539 37.1555H69.2148C69.9246 37.1555 70.5 36.537 70.5 35.774C70.5 35.011 69.9246 34.3924 69.2148 34.3924H49.7539ZM48.4688 42.0607C48.4688 41.2977 49.0441 40.6791 49.7539 40.6791H69.2148C69.9246 40.6791 70.5 41.2977 70.5 42.0607C70.5 42.8237 69.9246 43.4422 69.2148 43.4422H49.7539C49.0441 43.4422 48.4688 42.8237 48.4688 42.0607Z" fill="#378899"/>
</svg>
