<svg width="94" height="98" viewBox="0 0 94 98" fill="none" xmlns="http://www.w3.org/2000/svg">
<path d="M65.9102 19.7302C66.6746 19.7303 67.4124 20.0185 67.9837 20.54C68.555 21.0615 68.92 21.7801 69.0094 22.5596L69.0312 22.9345V74.2024C69.0304 75.0191 68.7258 75.8047 68.1797 76.3985C67.6336 76.9924 66.8872 77.3498 66.0931 77.3976C65.2989 77.4455 64.517 77.1802 63.9069 76.6561C63.2969 76.1319 62.9049 75.3883 62.8109 74.5773L62.7891 74.2024V58.1812H59.668C58.9035 58.1811 58.1657 57.893 57.5944 57.3714C57.0231 56.8499 56.6582 56.1313 56.5687 55.3518L56.5469 54.977V35.7515C56.5469 28.6701 61.2285 19.7302 65.9102 19.7302ZM47.1836 19.7302C47.9481 19.7303 48.6859 20.0185 49.2572 20.54C49.8284 21.0615 50.1934 21.7801 50.2828 22.5596L50.3047 22.9345V38.9557C50.3043 41.7975 49.3845 44.5586 47.6897 46.8054C45.995 49.0522 43.6212 50.6575 40.9414 51.369V74.2024C40.9405 75.0191 40.6359 75.8047 40.0898 76.3985C39.5437 76.9924 38.7974 77.3498 38.0032 77.3976C37.2091 77.4455 36.4271 77.1802 35.8171 76.6561C35.2071 76.1319 34.815 75.3883 34.7211 74.5773L34.6992 74.2024V51.369C32.1257 50.6859 29.8316 49.1779 28.1504 47.0641C26.4693 44.9503 25.4888 42.3411 25.3515 39.6158L25.3359 38.9557V22.9345C25.3368 22.1178 25.6414 21.3322 26.1875 20.7384C26.7336 20.1445 27.48 19.7871 28.2741 19.7393C29.0683 19.6914 29.8502 19.9567 30.4602 20.4809C31.0703 21.0051 31.4623 21.7486 31.5563 22.5596L31.5781 22.9345V38.9557C31.5782 40.0806 31.8666 41.1857 32.4145 42.1599C32.9623 43.1341 33.7503 43.943 34.6992 44.5055V22.9345C34.7001 22.1178 35.0047 21.3322 35.5508 20.7384C36.0969 20.1445 36.8433 19.7871 37.6374 19.7393C38.4315 19.6914 39.2135 19.9567 39.8235 20.4809C40.4336 21.0051 40.8256 21.7486 40.9196 22.5596L40.9414 22.9345L40.9445 44.5055C41.8155 43.9886 42.5519 43.2633 43.091 42.3913C43.6301 41.5192 43.9559 40.5264 44.0407 39.4972L44.0625 38.9557V22.9345C44.0625 22.0847 44.3913 21.2696 44.9766 20.6687C45.562 20.0678 46.3558 19.7302 47.1836 19.7302Z" fill="#467E78"/>
</svg>
