<svg width="94" height="94" viewBox="0 0 94 94" fill="none" xmlns="http://www.w3.org/2000/svg">
<path d="M69.0312 14.3203C69.9306 14.3204 70.7987 14.647 71.4707 15.238C72.1428 15.829 72.5722 16.6434 72.6774 17.5268L72.7031 17.9516V76.0524C72.7021 76.978 72.3437 77.8682 71.7013 78.5412C71.0588 79.2142 70.1807 79.6192 69.2464 79.6734C68.3122 79.7277 67.3922 79.4271 66.6745 78.833C65.9568 78.239 65.4956 77.3963 65.3851 76.4773L65.3594 76.0524V57.8959H61.6875C60.7881 57.8958 59.9201 57.5693 59.248 56.9782C58.5759 56.3872 58.1466 55.5728 58.0413 54.6895L58.0156 54.2646V32.4768C58.0156 24.4516 63.5234 14.3203 69.0312 14.3203ZM47 14.3203C47.8994 14.3204 48.7674 14.647 49.4395 15.238C50.1116 15.829 50.5409 16.6434 50.6462 17.5268L50.6719 17.9516V36.1081C50.6714 39.3286 49.5893 42.4577 47.5955 45.004C45.6016 47.5503 42.809 49.3694 39.6562 50.1758V76.0524C39.6552 76.978 39.2968 77.8682 38.6544 78.5412C38.0119 79.2142 37.1338 79.6192 36.1996 79.6734C35.2653 79.7277 34.3453 79.4271 33.6276 78.833C32.91 78.239 32.4487 77.3963 32.3382 76.4773L32.3125 76.0524V50.1758C29.2849 49.4017 26.5859 47.6927 24.608 45.2972C22.6302 42.9017 21.4767 39.9447 21.3152 36.8562L21.2969 36.1081V17.9516C21.2979 17.0261 21.6563 16.1358 22.2987 15.4628C22.9412 14.7898 23.8193 14.3848 24.7536 14.3306C25.6878 14.2763 26.6078 14.577 27.3255 15.171C28.0432 15.765 28.5044 16.6077 28.6149 17.5268L28.6406 17.9516V36.1081C28.6407 37.3829 28.98 38.6353 29.6245 39.7393C30.2691 40.8433 31.1961 41.7601 32.3125 42.3975V17.9516C32.3135 17.0261 32.6719 16.1358 33.3144 15.4628C33.9568 14.7898 34.8349 14.3848 35.7692 14.3306C36.7035 14.2763 37.6234 14.577 38.3411 15.171C39.0588 15.765 39.52 16.6077 39.6305 17.5268L39.6562 17.9516L39.6599 42.3975C40.6846 41.8118 41.5509 40.9898 42.1852 40.0015C42.8194 39.0133 43.2027 37.8881 43.3024 36.7218L43.3281 36.1081V17.9516C43.3281 16.9885 43.715 16.0649 44.4036 15.3839C45.0922 14.7029 46.0262 14.3203 47 14.3203Z" fill="#FB7676"/>
</svg>
