<svg width="94" height="94" viewBox="0 0 94 94" fill="none" xmlns="http://www.w3.org/2000/svg">
<path fill-rule="evenodd" clip-rule="evenodd" d="M34.9023 10.0811C32.7026 10.5516 30.0473 11.295 29.0008 11.7327C27.1082 12.525 27.1196 12.531 31.2388 12.9125C35.6069 13.3167 40.291 14.702 44.4773 16.8288C47.3426 18.2844 47.5813 19.2971 46.0563 23.5322C45.4578 25.1939 45.131 28.027 45.1574 31.3134L45.1999 36.4817L42.2693 39.1047C38.5345 42.4484 34.3973 44.6283 22.6172 49.4599C13.6376 53.1433 10.9685 54.5064 12.7375 54.5064C13.1561 54.5064 15.4361 53.7236 17.8048 52.7677C23.049 50.6493 26.6003 49.5232 26.9469 49.8683C27.4213 50.3406 22.1759 53.7242 16.7134 56.4708C11.5849 59.049 8.42342 61.014 9.33614 61.0552C9.56641 61.066 16.7176 57.6871 25.2276 53.5475C38.2808 47.1975 44.9499 44.3996 47.1189 44.3632C47.351 44.359 48.0658 45.5377 48.7075 46.9826C49.3491 48.4269 51.3569 51.2147 53.1691 53.1773C54.9813 55.1393 56.637 57.2894 56.8493 57.9546C57.0736 58.6579 56.6226 60.7501 55.7723 62.9551C54.9681 65.0407 53.2878 69.6795 52.0381 73.2644C50.7884 76.8492 48.8688 81.0807 47.772 82.6684C46.6752 84.256 45.928 85.5547 46.1115 85.5547C46.295 85.5547 47.5813 84.9785 48.9701 84.2745C52.5304 82.4696 59.2576 75.5052 63.8823 68.8364C69.1199 61.2845 69.7718 59.9046 70.1856 55.4922L70.5382 51.7348L67.6022 49.5889C65.9872 48.409 64.1618 46.8883 63.5459 46.2106C62.1847 44.7131 62.0347 40.472 63.2983 39.214C64.8196 37.6998 73.5084 34.8099 76.6813 34.7627L79.6797 34.7185L77.3074 33.854C76.0031 33.3781 74.3426 32.4341 73.6175 31.7564C72.0356 30.2762 68.8243 29.4624 64.4916 29.4433C61.7841 29.4314 61.0351 29.1681 59.5748 27.7142C56.8403 24.9909 56.7462 23.3787 59.0231 18.2206L61.0165 13.7048L58.8031 11.8001C57.022 10.2674 55.8694 9.82021 52.9046 9.51152C47.0673 8.90428 39.2481 9.15148 34.9023 10.0811Z" fill="#DA9D6A"/>
</svg>
