<svg width="94" height="94" viewBox="0 0 94 94" fill="none" xmlns="http://www.w3.org/2000/svg">
<path fill-rule="evenodd" clip-rule="evenodd" d="M34.9717 8.63839C32.7033 9.12246 29.965 9.88727 28.8858 10.3376C26.9341 11.1527 26.9459 11.1589 31.1938 11.5514C35.6984 11.9673 40.5288 13.3925 44.846 15.5807C47.8008 17.0783 48.0469 18.1202 46.4743 22.4775C45.8571 24.1871 45.5201 27.102 45.5473 30.4831L45.5912 35.8005L42.569 38.4992C38.7175 41.9393 34.451 44.1821 22.3028 49.1531C13.0426 52.9427 10.29 54.3452 12.1143 54.3452C12.546 54.3452 14.8972 53.5398 17.34 52.5563C22.748 50.3768 26.4103 49.2182 26.7678 49.5732C27.2569 50.0592 21.8476 53.5404 16.2144 56.3662C10.9257 59.0188 7.66542 61.0405 8.60665 61.0829C8.84412 61.0939 16.2188 57.6176 24.9948 53.3586C38.4559 46.8255 45.3333 43.9468 47.5701 43.9094C47.8095 43.9051 48.5466 45.1177 49.2083 46.6043C49.87 48.0903 51.9405 50.9585 53.8094 52.9777C55.6782 54.9963 57.3857 57.2085 57.6046 57.8928C57.8359 58.6164 57.3708 60.769 56.4939 63.0376C55.6646 65.1834 53.9318 69.9559 52.643 73.6442C51.3542 77.3325 49.3747 81.6861 48.2436 83.3195C47.1125 84.9529 46.342 86.2891 46.5312 86.2891C46.7204 86.2891 48.0469 85.6963 49.4792 84.972C53.1507 83.115 60.0882 75.9497 64.8574 69.0885C70.2587 61.3188 70.9309 59.8991 71.3576 55.3594L71.7213 51.4936L68.6935 49.2858C67.0281 48.0719 65.1456 46.5073 64.5105 45.81C63.1067 44.2693 62.9521 39.9059 64.2551 38.6116C65.824 37.0537 74.7843 34.0805 78.0563 34.0319L81.1484 33.9865L78.702 33.097C77.3569 32.6074 75.6445 31.6361 74.8968 30.9389C73.2654 29.416 69.9538 28.5787 65.4857 28.5591C62.6936 28.5468 61.9212 28.2759 60.4153 26.7801C57.5953 23.9782 57.4982 22.3196 59.8464 17.0126L61.902 12.3666L59.6194 10.407C57.7827 8.83005 56.5941 8.36993 53.5366 8.05234C47.517 7.42759 39.4534 7.68191 34.9717 8.63839Z" fill="#FDAC41"/>
</svg>
